<svg width="54" height="34" viewBox="0 0 54 34" fill="none" xmlns="http://www.w3.org/2000/svg">
<path d="M0 24.0688C0 21.7554 0.753715 19.6757 2.26114 17.8764C3.76857 16.0771 5.68933 14.9088 8.04773 14.3947C8.67987 11.6607 10.1144 9.39405 12.3755 7.66486C14.6366 5.9123 17.2382 5.0477 20.2044 5.0477C23.0734 5.0477 25.6506 5.88893 27.8874 7.59475C30.1486 9.30058 31.6074 11.4738 32.2638 14.1376H32.9203C35.7893 14.1376 38.2206 15.0957 40.2386 17.0352C42.2566 18.9747 43.2778 21.3115 43.2778 24.0455C43.2778 26.8028 42.2566 29.1396 40.2386 31.0791C38.2206 33.0186 35.7893 34 32.9203 34H10.3818C8.97163 34 7.6344 33.743 6.3701 33.2055C5.10581 32.6681 3.96308 32.0138 3.03917 31.1258C2.11526 30.2378 1.38586 29.1629 0.826654 27.9478C0.267447 26.7327 0 25.4008 0 24.0688ZM3.52544 24.0688C3.52544 25.8448 4.20621 27.387 5.51913 28.6488C6.83206 29.9107 8.46105 30.565 10.3575 30.565H32.9203C34.7924 30.565 36.4214 29.9341 37.7587 28.6488C39.0959 27.3636 39.7767 25.8448 39.7767 24.0688C39.7767 22.2929 39.1202 20.7506 37.7587 19.4888C36.4214 18.227 34.8167 17.5727 32.9203 17.5727H29.5407C29.2976 17.5727 29.176 17.4558 29.176 17.2222L29.0059 16.0771C28.7627 13.8806 27.7902 12.0346 26.1126 10.5858C24.4349 9.13701 22.4412 8.41261 20.1558 8.41261C17.8703 8.41261 15.8766 9.13701 14.1747 10.6092C12.4728 12.0579 11.5245 13.904 11.3057 16.0771L11.1355 17.0586C11.1355 17.2923 11.014 17.4091 10.7465 17.4091L9.65241 17.5727C7.90185 17.7129 6.44304 18.4139 5.25169 19.6524C4.13327 20.8908 3.52544 22.363 3.52544 24.0688ZM25.0428 3.69239C24.7996 3.90269 24.8483 4.06626 25.213 4.1831C26.2584 4.62708 27.1337 5.0477 27.8388 5.46831C28.1063 5.53842 28.3008 5.51505 28.3737 5.39821C29.8568 4.06626 31.5588 3.38861 33.5281 3.38861C35.4975 3.38861 37.1751 4.01953 38.6339 5.28137C40.0684 6.54322 40.8708 8.10884 41.041 9.95487L41.2598 11.4504H44.7123C46.2927 11.4504 47.6542 11.9878 48.7969 13.0861C49.9397 14.1844 50.4989 15.4696 50.4989 16.9651C50.4989 18.3672 49.9883 19.5823 48.9914 20.6338C47.9946 21.6853 46.7546 22.2695 45.2715 22.4331C45.0284 22.4331 44.9068 22.5499 44.9068 22.807V25.4475C44.9068 25.7045 45.0284 25.8214 45.2715 25.8214C47.7271 25.6812 49.7938 24.7465 51.4714 23.0407C53.149 21.3348 54 19.3019 54 16.9651C54 14.4882 53.1004 12.3851 51.2769 10.6559C49.4534 8.90333 47.2652 8.03873 44.7123 8.03873H44.3476C43.7154 5.70199 42.3782 3.78586 40.3359 2.26697C38.3179 0.748084 36.0324 0.000324567 33.5281 0.000324567C30.1243 -0.0230429 27.2796 1.21543 25.0428 3.69239Z" fill="#0F172A"/>
</svg>
