<?xml version="1.0" encoding="utf-8"?>
<!-- Generator: Adobe Illustrator 27.0.1, SVG Export Plug-In . SVG Version: 6.00 Build 0)  -->
<svg version="1.1" id="Layer_1" xmlns="http://www.w3.org/2000/svg" xmlns:xlink="http://www.w3.org/1999/xlink" x="0px" y="0px"
	 viewBox="0 0 55 42" style="enable-background:new 0 0 55 42;" xml:space="preserve">
<style type="text/css">
	.st0{fill:#FFFBE9;}
</style>
<path class="st0" d="M52.9,22.3C53.6,21,54,19.6,54,18c0-2.6-0.9-4.8-2.7-6.7c-1.8-1.9-4-2.8-6.6-2.8h-0.4c-0.6-2.5-2-4.5-4-6.1
	C38.3,0.8,36,0,33.5,0c-3.4,0-6.2,1.3-8.5,3.9c-0.2,0.2-0.2,0.4,0.2,0.5c1,0.5,1.9,0.9,2.6,1.4c0.3,0.1,0.5,0,0.5-0.1
	c1.5-1.4,3.2-2.1,5.2-2.1c2,0,3.6,0.7,5.1,2c1.4,1.3,2.2,3,2.4,4.9l0.2,1.6h3.5c1.6,0,2.9,0.6,4.1,1.7c1.1,1.2,1.7,2.5,1.7,4.1
	c0,1.5-0.5,2.8-1.5,3.9c-1,1.1-2.2,1.7-3.7,1.9c-0.2,0-0.4,0.1-0.4,0.4v2.8c0,0.3,0.1,0.4,0.4,0.4c1.7-0.1,3.2-0.6,4.6-1.6
	c0.6,1.6,0.6,3.3,0.1,5c-0.7,2.4-2,4.1-4.2,5.3c-2.1,1.2-4.4,1.5-6.8,0.8c-1-0.3-2-0.8-2.9-1.4c1.5-0.5,2.9-1.4,4.1-2.6
	c2-2.1,3-4.5,3-7.4c0-2.9-1-5.4-3-7.4c-2-2.1-4.4-3.1-7.3-3.1h-0.7c-0.7-2.8-2.1-5.1-4.4-6.9c-2.2-1.8-4.8-2.7-7.7-2.7
	c-3,0-5.6,0.9-7.8,2.8c-2.3,1.8-3.7,4.2-4.3,7.1c-2.4,0.5-4.3,1.8-5.8,3.7C0.8,20.8,0,23,0,25.5c0,1.4,0.3,2.8,0.8,4.1
	C1.4,30.9,2.1,32,3,33s2.1,1.6,3.3,2.2c1.3,0.6,2.6,0.8,4,0.8h20.4c1.8,2.4,4.2,4.1,7.3,4.9c2.3,0.6,4.6,0.7,6.8,0.1
	c2.2-0.6,4.2-1.7,5.9-3.2c1.7-1.6,2.8-3.5,3.4-5.8C55.1,28.7,54.7,25.5,52.9,22.3z M10.4,32.4c-1.9,0-3.5-0.7-4.8-2
	c-1.3-1.3-2-3-2-4.8c0-1.8,0.6-3.4,1.7-4.7c1.2-1.3,2.7-2.1,4.4-2.2l1.1-0.2c0.3,0,0.4-0.1,0.4-0.4l0.2-1c0.2-2.3,1.2-4.3,2.9-5.8
	c1.7-1.6,3.7-2.3,6-2.3c2.3,0,4.3,0.8,6,2.3c1.7,1.5,2.7,3.5,2.9,5.8l0.2,1.2c0,0.2,0.1,0.4,0.4,0.4h3.4c1.9,0,3.5,0.7,4.8,2
	c1.4,1.3,2,3,2,4.8s-0.7,3.5-2,4.8c-1.3,1.4-3,2-4.8,2H10.4z"/>
</svg>
