<svg width="51" height="52" viewBox="0 0 51 52" fill="none" xmlns="http://www.w3.org/2000/svg">
<path d="M0 25.9755C0 25.3885 0.19209 24.8749 0.600282 24.4591C1.00847 24.0677 1.51271 23.8721 2.04096 23.8721H6.93927C7.49153 23.8721 7.94774 24.0677 8.33192 24.4835C8.69209 24.8993 8.88418 25.3885 8.88418 25.9755C8.88418 26.5626 8.7161 27.0517 8.35593 27.4675C7.99576 27.8833 7.51554 28.079 6.96328 28.079H2.06497C1.51271 28.079 1.03249 27.8833 0.624294 27.4675C0.216102 27.0517 0 26.5626 0 25.9755ZM6.86723 42.9257C6.86723 42.3631 7.05932 41.8739 7.41949 41.4337L10.9492 37.936C11.3093 37.5447 11.7895 37.3735 12.3658 37.3735C12.9421 37.3735 13.4223 37.5691 13.8065 37.936C14.1907 38.3029 14.3828 38.7676 14.3828 39.3302C14.3828 39.9172 14.1907 40.4553 13.8065 40.8956L10.3969 44.3688C9.41243 45.1515 8.42797 45.1515 7.4435 44.3688C7.05932 43.9774 6.86723 43.4882 6.86723 42.9257ZM6.86723 9.07432C6.86723 8.51176 7.05932 8.02258 7.41949 7.58231C7.89972 7.16651 8.40396 6.97084 8.95621 6.97084C9.48446 6.97084 9.96469 7.16651 10.3729 7.55786L13.8065 11.1533C14.1907 11.5202 14.3828 12.0094 14.3828 12.5964C14.3828 13.1834 14.1907 13.6726 13.8065 14.064C13.4223 14.4553 12.9421 14.651 12.3658 14.651C11.7895 14.651 11.3093 14.4553 10.9492 14.064L7.4435 10.5663C7.05932 10.175 6.86723 9.66134 6.86723 9.07432ZM12.9901 25.9755C12.9901 23.7008 13.5424 21.5729 14.6709 19.6162C15.7994 17.6595 17.3121 16.0941 19.2571 14.9445C21.202 13.7949 23.2669 13.2324 25.5 13.2324C27.1808 13.2324 28.7895 13.5748 30.3503 14.2596C31.887 14.9445 33.2316 15.8495 34.3362 16.9991C35.4647 18.1486 36.3531 19.4939 37.0014 21.0593C37.6497 22.6246 37.9859 24.2879 37.9859 26C37.9859 28.2992 37.4336 30.4271 36.3051 32.3838C35.1766 34.3405 33.6638 35.8815 31.7429 37.031C29.822 38.1806 27.733 38.7432 25.476 38.7432C23.2189 38.7432 21.1299 38.1806 19.209 37.031C17.2881 35.8815 15.7754 34.3405 14.6469 32.3838C13.5664 30.4026 12.9901 28.2747 12.9901 25.9755ZM17.072 25.9755C17.072 28.3725 17.8884 30.4026 19.5452 32.0903C21.178 33.778 23.1709 34.6341 25.524 34.6341C27.8771 34.6341 29.8701 33.778 31.5268 32.0903C33.1836 30.4026 34.024 28.3725 34.024 25.9755C34.024 23.6275 33.1836 21.6218 31.5268 19.9341C29.8701 18.2709 27.8771 17.4393 25.524 17.4393C23.1949 17.4393 21.202 18.2709 19.5692 19.9341C17.8884 21.6218 17.072 23.6275 17.072 25.9755ZM23.459 45.0047C23.459 44.4177 23.6511 43.9285 24.0593 43.5372C24.4675 43.1458 24.9477 42.9501 25.5 42.9501C26.0763 42.9501 26.5805 43.1458 26.9647 43.5372C27.3489 43.9285 27.541 44.4177 27.541 45.0047V49.8721C27.541 50.4591 27.3489 50.9727 26.9407 51.3885C26.5325 51.8043 26.0523 52 25.5 52C24.9477 52 24.4435 51.8043 24.0593 51.3885C23.6511 50.9727 23.459 50.4591 23.459 49.8721V45.0047ZM23.459 7.09313V2.10348C23.459 1.54092 23.6511 1.05174 24.0593 0.635937C24.4675 0.220132 24.9477 0 25.524 0C26.1003 0 26.5565 0.195673 26.9647 0.611477C27.3729 1.02728 27.565 1.51646 27.565 2.07902V7.09313C27.565 7.65569 27.3729 8.12041 26.9647 8.51176C26.5565 8.9031 26.0763 9.07432 25.524 9.07432C24.9718 9.07432 24.4675 8.87865 24.0833 8.51176C23.6992 8.14487 23.459 7.65569 23.459 7.09313ZM36.7133 39.3302C36.7133 38.7676 36.9054 38.3029 37.2655 37.9605C37.6257 37.5691 38.0819 37.3979 38.6102 37.3979C39.1864 37.3979 39.6667 37.5936 40.0508 37.9605L43.5565 41.4581C43.9407 41.8739 44.1328 42.3876 44.1328 42.9501C44.1328 43.5127 43.9407 44.0019 43.5565 44.3932C42.596 45.1515 41.6356 45.1515 40.6751 44.3932L37.2655 40.92C36.9054 40.4798 36.7133 39.9661 36.7133 39.3302ZM36.7133 12.6209C36.7133 12.0094 36.9054 11.5202 37.2655 11.1778L40.6751 7.58231C41.0833 7.19097 41.5636 6.9953 42.0918 6.9953C42.6681 6.9953 43.1483 7.19097 43.5325 7.60677C43.9407 8.02258 44.1328 8.51176 44.1328 9.07432C44.1328 9.68579 43.9407 10.1994 43.5565 10.5908L40.0508 14.0884C39.6186 14.4798 39.1384 14.6754 38.6102 14.6754C38.0579 14.6754 37.6257 14.4798 37.2655 14.0884C36.9054 13.6971 36.7133 13.2079 36.7133 12.6209ZM42.1398 25.9755C42.1398 25.3885 42.3319 24.8993 42.7161 24.4591C43.1003 24.0677 43.5565 23.8721 44.0847 23.8721H48.935C49.4873 23.8721 49.9675 24.0922 50.3757 24.508C50.7839 24.9238 51 25.413 51 25.9755C51 26.5381 50.7839 27.0273 50.3757 27.4431C49.9675 27.8589 49.4873 28.0546 48.935 28.0546H44.0847C43.5325 28.0546 43.0523 27.8589 42.6921 27.4431C42.3319 27.0273 42.1398 26.5626 42.1398 25.9755Z" fill="#0F172A"/>
</svg>
