<svg width="50" height="35" viewBox="0 0 50 35" fill="none" xmlns="http://www.w3.org/2000/svg">
<path d="M0 22.9703C0 20.1867 0.866217 17.7178 2.59865 15.5394C4.33109 13.361 6.52069 11.9571 9.19153 11.352C9.93744 8.03596 11.6458 5.32503 14.2685 3.19502C16.8912 1.06501 19.923 0 23.3157 0C26.6362 0 29.5958 1.0408 32.1944 3.0982C34.7931 5.1556 36.4774 7.81812 37.2474 11.0615H38.0414C40.2069 11.0615 42.204 11.5941 44.0327 12.6349C45.8614 13.6757 47.3292 15.1279 48.3879 16.9675C49.4466 18.8071 50 20.7918 50 22.9703C50 25.1003 49.4947 27.0851 48.4841 28.9004C47.4735 30.7158 46.078 32.168 44.3215 33.2573C42.565 34.3465 40.616 34.9274 38.5226 35H11.5496C8.32531 34.8548 5.60635 33.6203 3.36862 31.2967C1.1309 28.9972 0 26.2137 0 22.9703ZM4.11453 22.9703C4.11453 25.0761 4.83638 26.8914 6.28008 28.4405C7.72377 29.9896 9.48027 30.8126 11.5496 30.9336H38.4745C40.5438 30.8368 42.3003 29.9896 43.744 28.4405C45.2117 26.8914 45.9336 25.0519 45.9336 22.9703C45.9336 20.8402 45.1396 19.0249 43.5756 17.4758C42.0115 15.9267 40.1588 15.1521 37.9933 15.1521H34.1434C33.8787 15.1521 33.7344 15.0069 33.7344 14.7165L33.5659 13.3368C33.3012 10.7227 32.1704 8.52006 30.1973 6.75311C28.2243 4.98617 25.9384 4.09059 23.3157 4.09059C20.693 4.09059 18.3831 4.98617 16.4581 6.75311C14.5091 8.52006 13.4023 10.7227 13.1617 13.3368L12.9692 14.7165C12.9692 15.0069 12.8008 15.1521 12.488 15.1521H11.2127C9.19153 15.3942 7.50722 16.2656 6.15977 17.742C4.81232 19.2185 4.11453 20.9613 4.11453 22.9703Z" fill="#0F172A"/>
</svg>
