<?xml version="1.0" encoding="utf-8"?>
<!-- Generator: Adobe Illustrator 27.0.1, SVG Export Plug-In . SVG Version: 6.00 Build 0)  -->
<svg version="1.1" id="Layer_2_00000044148611951616055750000015368247194759358371_"
	 xmlns="http://www.w3.org/2000/svg" xmlns:xlink="http://www.w3.org/1999/xlink" x="0px" y="0px" viewBox="0 0 53.4 34.6"
	 style="enable-background:new 0 0 53.4 34.6;" xml:space="preserve">
<style type="text/css">
	.st0{fill:#B3BFD2;}
</style>
<g id="Layer_1-2">
	<path id="broken-day" class="st0" d="M0,24.5c0-2.4,0.8-4.5,2.2-6.3c1.5-1.8,3.4-3,5.7-3.5c0.6-2.8,2.1-5.1,4.3-6.8
		C14.5,6,17,5.1,20,5.1s5.4,0.9,7.6,2.6c2.2,1.7,3.7,4,4.3,6.7h0.7c2.8,0,5.2,1,7.2,2.9s3,4.4,3,7.1c0,2.8-1,5.2-3,7.1s-4.4,3-7.2,3
		l-22.3,0c-1.4,0-2.7-0.3-4-0.8C5,33.2,3.9,32.5,3,31.6c-0.9-0.9-1.6-2-2.2-3.2C0.3,27.2,0,25.8,0,24.5z M3.5,24.5
		c0,1.8,0.7,3.4,2,4.7s2.9,2,4.8,2l22.3,0c1.8,0,3.5-0.6,4.8-2c1.3-1.3,2-2.9,2-4.7s-0.7-3.4-2-4.7c-1.3-1.3-2.9-2-4.8-2h-3.3
		c-0.2,0-0.4-0.1-0.4-0.4l-0.2-1.2c-0.2-2.2-1.2-4.1-2.9-5.6s-3.6-2.2-5.9-2.2s-4.2,0.7-5.9,2.2c-1.7,1.5-2.6,3.4-2.8,5.6l-0.2,1
		c0,0.2-0.1,0.4-0.4,0.4l-1.1,0.2C7.8,18,6.4,18.7,5.2,20C4.1,21.2,3.5,22.7,3.5,24.5L3.5,24.5z M24.8,3.7c-0.2,0.2-0.2,0.4,0.2,0.5
		c1,0.4,1.9,0.9,2.6,1.3c0.3,0.1,0.5,0.1,0.5-0.1c1.5-1.3,3.1-2,5.1-2s3.6,0.6,5,1.9c1.4,1.3,2.2,2.9,2.4,4.8l0.2,1.5h3.4
		c1.6,0,2.9,0.6,4,1.7s1.7,2.4,1.7,3.9c0,1.4-0.5,2.7-1.5,3.7c-1,1.1-2.2,1.7-3.7,1.8c-0.2,0-0.4,0.1-0.4,0.4v2.7
		c0,0.3,0.1,0.4,0.4,0.4c2.4-0.1,4.5-1.1,6.1-2.8s2.5-3.8,2.5-6.2c0-2.5-0.9-4.7-2.7-6.4c-1.8-1.8-4-2.7-6.5-2.7h-0.4
		c-0.6-2.4-1.9-4.3-4-5.9c-2-1.6-4.3-2.3-6.8-2.3C29.8,0,27,1.2,24.8,3.7z"/>
</g>
</svg>
