<?xml version="1.0" encoding="utf-8"?>
<!-- Generator: Adobe Illustrator 27.0.1, SVG Export Plug-In . SVG Version: 6.00 Build 0)  -->
<svg version="1.1" id="Layer_2_00000108309219165039207690000010755630699908418716_"
	 xmlns="http://www.w3.org/2000/svg" xmlns:xlink="http://www.w3.org/1999/xlink" x="0px" y="0px" viewBox="0 0 54.6 41.4"
	 style="enable-background:new 0 0 54.6 41.4;" xml:space="preserve">
<style type="text/css">
	.st0{fill:#5D6D92;}
</style>
<g id="Layer_1-2">
	<path id="broken-night" class="st0" d="M52.9,22.3C53.6,21,54,19.6,54,18c0-2.6-0.9-4.8-2.7-6.7c-1.8-1.9-4-2.8-6.6-2.8h-0.4
		c-0.6-2.5-2-4.5-4-6.1C38.3,0.8,36,0,33.5,0c-3.4,0-6.2,1.3-8.5,3.9c-0.2,0.2-0.2,0.4,0.2,0.5c1,0.5,1.9,0.9,2.6,1.4
		c0.3,0.1,0.5,0.1,0.5-0.1c1.5-1.4,3.2-2.1,5.1-2.1s3.7,0.7,5.1,2c1.4,1.3,2.2,3,2.4,5l0.2,1.6h3.5c1.6,0,2.9,0.6,4.1,1.7
		s1.7,2.5,1.7,4.1c0,1.5-0.5,2.8-1.5,3.9c-1,1.1-2.2,1.7-3.7,1.9c-0.2,0-0.4,0.1-0.4,0.4v2.8c0,0.3,0.1,0.4,0.4,0.4
		c1.7-0.1,3.2-0.6,4.6-1.5c0.6,1.6,0.6,3.3,0.1,5c-0.7,2.4-2,4.1-4.2,5.3c-2.1,1.2-4.4,1.5-6.8,0.8c-1-0.3-2-0.8-2.9-1.5
		c1.5-0.5,2.9-1.4,4.1-2.6c2-2,3-4.5,3-7.5s-1-5.4-3-7.4S35.8,15,32.9,15h-0.7c-0.7-2.8-2.1-5.1-4.4-6.9c-2.2-1.8-4.8-2.7-7.7-2.7
		s-5.6,0.9-7.8,2.8c-2.3,1.8-3.7,4.2-4.3,7.1c-2.4,0.5-4.3,1.8-5.8,3.7S0,23,0,25.5c0,1.4,0.3,2.8,0.8,4.1S2.1,32,3,33
		s2.1,1.6,3.3,2.2s2.6,0.8,4,0.8h20.4c1.8,2.4,4.2,4.1,7.3,4.9c2.3,0.6,4.6,0.7,6.8,0.1s4.2-1.7,5.9-3.2s2.8-3.5,3.4-5.8
		C55.1,28.7,54.7,25.5,52.9,22.3L52.9,22.3z M10.4,32.4c-1.9,0-3.5-0.7-4.8-2s-2-3-2-4.9s0.6-3.4,1.7-4.7c1.2-1.3,2.7-2,4.4-2.2
		l1.1-0.2c0.3,0,0.4-0.1,0.4-0.4l0.2-1c0.2-2.3,1.2-4.3,2.9-5.8c1.7-1.6,3.7-2.3,6-2.3s4.3,0.8,6,2.3c1.7,1.5,2.6,3.5,2.9,5.8
		l0.2,1.2c0,0.2,0.1,0.4,0.4,0.4h3.4c1.9,0,3.5,0.7,4.8,2c1.4,1.3,2,3,2,4.9s-0.7,3.5-2,4.9s-3,2-4.8,2L10.4,32.4L10.4,32.4z"/>
</g>
</svg>
