<?xml version="1.0" encoding="UTF-8"?><svg id="Layer_2" xmlns="http://www.w3.org/2000/svg" viewBox="0 0 53.39 34.59"><defs><style>.cls-1{fill:#fffefa;}</style></defs><g id="Layer_1-2"><path id="broken-day" class="cls-1" d="M0,24.47c0-2.35,.75-4.47,2.24-6.3,1.49-1.83,3.39-3.02,5.72-3.54,.63-2.78,2.05-5.09,4.28-6.84,2.24-1.78,4.81-2.66,7.74-2.66s5.38,.86,7.59,2.6c2.23,1.74,3.68,3.95,4.32,6.66h.65c2.84,0,5.24,.98,7.23,2.95,1.99,1.97,3,4.35,3,7.13,0,2.81-1.01,5.18-3.01,7.15-2,1.97-4.4,2.97-7.24,2.97l-22.28-.02c-1.39,0-2.72-.26-3.97-.81-1.25-.55-2.38-1.21-3.29-2.12-.91-.9-1.63-2-2.19-3.23C.26,27.18,0,25.82,0,24.47Zm3.49,0c0,1.81,.67,3.38,1.97,4.66,1.3,1.28,2.91,1.95,4.78,1.95l22.31,.02c1.85,0,3.46-.64,4.78-1.95,1.32-1.31,2-2.85,2-4.66s-.65-3.38-1.99-4.66c-1.32-1.28-2.91-1.95-4.78-1.95h-3.34c-.24,0-.36-.12-.36-.36l-.17-1.17c-.24-2.24-1.2-4.11-2.86-5.59-1.66-1.48-3.63-2.21-5.89-2.22s-4.23,.73-5.91,2.23c-1.68,1.47-2.62,3.35-2.84,5.56l-.17,1c0,.24-.12,.36-.38,.36l-1.08,.17c-1.73,.14-3.17,.85-4.35,2.11-1.11,1.26-1.71,2.76-1.71,4.49ZM24.77,3.75c-.24,.21-.19,.38,.17,.5,1.03,.45,1.9,.88,2.6,1.31,.26,.07,.46,.05,.53-.07,1.47-1.35,3.15-2.04,5.1-2.04s3.61,.64,5.05,1.93c1.42,1.28,2.21,2.88,2.38,4.76l.22,1.52h3.41c1.56,0,2.91,.55,4.04,1.67,1.13,1.12,1.68,2.43,1.68,3.95,0,1.43-.51,2.66-1.49,3.73-.99,1.07-2.21,1.66-3.68,1.83-.24,0-.36,.12-.36,.38v2.69c0,.26,.12,.38,.36,.38,2.43-.14,4.47-1.09,6.13-2.82,1.66-1.73,2.5-3.8,2.5-6.18,0-2.52-.89-4.66-2.69-6.42-1.8-1.78-3.96-2.67-6.49-2.67h-.36c-.62-2.38-1.94-4.33-3.96-5.88C37.9,.76,35.64,0,33.16,0c-3.37-.03-6.18,1.23-8.39,3.75Z"/></g></svg>