<?xml version="1.0" encoding="UTF-8"?><svg id="Layer_2" xmlns="http://www.w3.org/2000/svg" viewBox="0 0 54.64 41.43"><g fill="#b3bfd2" id="Layer_1-2"><path id="broken-night" class="cls-1" d="M52.94,22.34c.7-1.32,1.06-2.78,1.06-4.37,0-2.62-.9-4.85-2.72-6.68-1.82-1.86-4.01-2.77-6.56-2.77h-.36c-.63-2.47-1.97-4.5-4.01-6.11C38.32,.79,36.03,0,33.53,0c-3.4-.02-6.25,1.29-8.49,3.91-.24,.22-.19,.4,.17,.52,1.05,.47,1.92,.92,2.63,1.36,.27,.07,.46,.05,.53-.07,1.48-1.41,3.19-2.13,5.15-2.13s3.65,.67,5.11,2c1.43,1.34,2.24,2.99,2.41,4.95l.22,1.58h3.45c1.58,0,2.94,.57,4.08,1.73,1.14,1.16,1.7,2.52,1.7,4.11,0,1.48-.51,2.77-1.51,3.88-1,1.11-2.24,1.73-3.72,1.91-.24,0-.36,.12-.36,.4v2.8c0,.27,.12,.4,.36,.4,1.72-.1,3.25-.63,4.59-1.55,.57,1.63,.62,3.31,.14,5.04-.66,2.36-2.04,4.14-4.17,5.32-2.11,1.19-4.38,1.46-6.78,.79-1.03-.29-1.99-.77-2.9-1.45,1.51-.5,2.87-1.36,4.08-2.59,2.02-2.05,3.04-4.53,3.04-7.45s-1.02-5.37-3.04-7.42c-2.02-2.05-4.45-3.07-7.32-3.07h-.66c-.66-2.82-2.12-5.12-4.38-6.93-2.24-1.81-4.81-2.7-7.68-2.7s-5.57,.92-7.83,2.77c-2.26,1.83-3.7,4.23-4.33,7.13-2.36,.54-4.28,1.78-5.79,3.69-1.51,1.91-2.26,4.11-2.26,6.56,0,1.41,.27,2.82,.83,4.11,.56,1.29,1.29,2.42,2.21,3.36s2.07,1.63,3.33,2.2c1.26,.57,2.6,.84,4.01,.84H30.75c1.75,2.44,4.18,4.06,7.26,4.91,2.3,.64,4.59,.68,6.84,.12,2.25-.56,4.22-1.66,5.89-3.25,1.67-1.59,2.81-3.54,3.44-5.81,.91-3.29,.49-6.5-1.23-9.65ZM10.36,32.36c-1.9,0-3.53-.69-4.84-2.03-1.31-1.34-1.99-2.97-1.99-4.85s.61-3.36,1.73-4.68c1.19-1.31,2.65-2.05,4.4-2.2l1.09-.17c.27,0,.39-.12,.39-.37l.17-1.04c.22-2.3,1.17-4.26,2.87-5.79,1.7-1.56,3.7-2.33,5.98-2.33s4.28,.77,5.96,2.3c1.68,1.53,2.65,3.49,2.89,5.81l.17,1.21c0,.25,.12,.37,.36,.37h3.38c1.9,0,3.5,.69,4.84,2.03,1.36,1.34,2.02,2.97,2.02,4.85s-.68,3.49-2.02,4.85c-1.34,1.36-2.97,2.03-4.84,2.03H10.36Z"/></g></svg>