<svg width="55" height="42" viewBox="0 0 55 42" fill="none" xmlns="http://www.w3.org/2000/svg">
<path d="M0 25.4846C0 23.0352 0.753679 20.8331 2.26111 18.928C3.76854 17.0229 5.68926 15.7858 8.04765 15.2414C8.6798 12.3466 10.1143 9.94664 12.3754 8.11573C14.6366 6.26008 17.2381 5.34462 20.2043 5.34462C23.0733 5.34462 25.6505 6.23534 27.8873 8.0415C30.1485 9.84767 31.6073 12.1487 32.2637 14.9693H32.9202C35.7892 14.9693 38.2205 15.9837 40.2385 18.0373C42.2566 20.0909 43.2777 22.5651 43.2777 25.4599C43.2777 28.3795 42.2566 30.8537 40.2385 32.9072C38.2205 34.9608 35.7892 36 32.9202 36H10.3817C8.97156 36 7.63434 35.7278 6.37005 35.1588C5.10575 34.5897 3.96302 33.8969 3.03912 32.9567C2.11521 32.0165 1.38586 30.8784 0.826653 29.5918C0.267445 28.3052 0 26.8949 0 25.4846ZM3.52538 25.4846C3.52538 27.365 4.20616 28.998 5.51908 30.3341C6.832 31.6701 8.46097 32.3629 10.3574 32.3629H32.9202C34.7923 32.3629 36.4213 31.6949 37.7586 30.3341C39.0958 28.9733 39.7766 27.365 39.7766 25.4846C39.7766 23.6042 39.1201 21.9713 37.7586 20.6352C36.4213 19.2991 34.8167 18.6064 32.9202 18.6064H29.5406C29.2975 18.6064 29.1759 18.4826 29.1759 18.2352L29.0057 17.0229C28.7626 14.6971 27.7901 12.7425 26.1125 11.2085C24.4348 9.67447 22.4411 8.90747 20.1557 8.90747C17.8702 8.90747 15.8766 9.67447 14.1746 11.2332C12.4727 12.7672 11.5245 14.7218 11.3056 17.0229L11.1354 18.062C11.1354 18.3094 11.0139 18.4332 10.7464 18.4332L9.65234 18.6064C7.90177 18.7548 6.44298 19.4971 5.25163 20.8084C4.13321 22.1197 3.52538 23.6785 3.52538 25.4846ZM25.0427 3.90958C24.7995 4.13226 24.8482 4.30546 25.2129 4.42917C26.2583 4.89927 27.1336 5.34462 27.8387 5.78998C28.1062 5.8642 28.3007 5.83946 28.3736 5.71575C29.8567 4.30546 31.5587 3.58794 33.528 3.58794C35.4974 3.58794 37.175 4.25597 38.6339 5.59204C40.0683 6.92811 40.8707 8.58583 41.0409 10.5405L41.2597 12.1239H44.7122C46.2926 12.1239 47.6541 12.693 48.7968 13.8559C49.9396 15.0188 50.4988 16.3796 50.4988 17.9631C50.4988 19.4476 49.9882 20.7342 48.9913 21.8476C47.9945 22.9609 46.7545 23.5795 45.2714 23.7527C45.0283 23.7527 44.9067 23.8764 44.9067 24.1486V26.9444C44.9067 27.2166 45.0283 27.3403 45.2714 27.3403C47.727 27.1918 49.7937 26.2022 51.4713 24.396C53.1489 22.5898 53.9999 20.4373 53.9999 17.9631C53.9999 15.3404 53.1003 13.1136 51.2768 11.2827C49.4533 9.42705 47.2651 8.5116 44.7122 8.5116H44.3475C43.7153 6.0374 42.3781 4.00855 40.3358 2.40032C38.3178 0.79209 36.0323 0.000343659 33.528 0.000343659C30.1242 -0.0243984 27.2795 1.28693 25.0427 3.90958Z" fill="#FFFBE9"/>
<path d="M30.7481 35.9971C32.5015 38.4366 34.9254 40.0597 38.0066 40.9143C40.3115 41.5535 42.5988 41.5966 44.8442 41.0371C47.0896 40.4775 49.0659 39.3808 50.7357 37.7878C52.4055 36.1947 53.546 34.2493 54.1747 31.9821C55.1609 28.4261 54.6075 24.9572 52.5145 21.5754L49.2147 24.3355C50.3593 26.4263 50.6238 28.5814 50.0017 30.8248C49.3464 33.1875 47.9656 34.9634 45.8348 36.1459C43.7284 37.3351 41.4587 37.6052 39.0568 36.9391C37.5526 36.5219 36.1851 35.7058 34.9368 34.4601L30.7481 35.9971Z" fill="#FFFBE9"/>
</svg>
