<?xml version="1.0" encoding="UTF-8"?><svg id="Layer_2" xmlns="http://www.w3.org/2000/svg" viewBox="0 0 34 34"><defs><style>.cls-1{fill:#b3bfd2;}</style></defs><g id="Layer_1-2"><path id="clear-night" class="cls-1" d="M0,17c0-2.3,.46-4.48,1.35-6.58,.89-2.11,2.12-3.9,3.63-5.41,1.52-1.51,3.34-2.73,5.46-3.64,2.12-.91,4.33-1.36,6.62-1.36h2.74c.39,.1,.55,.34,.55,.67l.12,2.11c.1,3.04,1.18,5.63,3.3,7.76,2.12,2.13,4.67,3.28,7.68,3.4l1.97,.17c.38,0,.58,.19,.58,.55v2.35c.02,3.06-.72,5.91-2.24,8.52-1.52,2.61-3.56,4.67-6.18,6.2-2.6,1.51-5.46,2.27-8.54,2.27-2.33,0-4.57-.45-6.69-1.34-2.12-.89-3.92-2.11-5.44-3.62-1.52-1.51-2.72-3.33-3.61-5.41-.84-2.11-1.3-4.31-1.3-6.63Zm4.4,0c0,1.82,.36,3.54,1.08,5.17,.72,1.6,1.68,2.97,2.86,4.07,1.18,1.1,2.53,1.96,4.07,2.59,1.52,.65,3.08,.96,4.67,.96,1.4,0,2.82-.26,4.23-.81,1.42-.55,2.74-1.32,3.97-2.3,1.23-.98,2.26-2.23,3.15-3.76,.89-1.53,1.44-3.18,1.71-5-3.92-.81-7.07-2.49-9.43-5.03-2.36-2.54-3.73-5.51-4.09-8.95-2.31,.14-4.38,.84-6.28,2.11-1.88,1.27-3.34,2.87-4.38,4.84-1.03,1.96-1.56,4-1.56,6.13Z"/></g></svg>