<?xml version="1.0" encoding="utf-8"?>
<!-- Generator: Adobe Illustrator 27.0.1, SVG Export Plug-In . SVG Version: 6.00 Build 0)  -->
<svg version="1.1" id="Layer_2_00000129924880320677020180000001843007556380922011_"
	 xmlns="http://www.w3.org/2000/svg" xmlns:xlink="http://www.w3.org/1999/xlink" x="0px" y="0px" viewBox="0 0 51 52"
	 style="enable-background:new 0 0 51 52;" xml:space="preserve">
<style type="text/css">
	.st0{fill:#394152;}
</style>
<g id="Layer_1-2">
	<path class="st0" d="M0,26c0-0.6,0.2-1.1,0.6-1.5C1,24.1,1.5,23.9,2,23.9h4.9c0.6,0,1,0.2,1.4,0.6c0.4,0.4,0.6,0.9,0.6,1.5
		S8.7,27,8.4,27.5C8,27.9,7.5,28.1,7,28.1H2.1c-0.5,0-1-0.2-1.4-0.6C0.2,27,0,26.6,0,26L0,26z M6.9,42.9c0-0.6,0.2-1,0.6-1.5
		l3.5-3.5c0.4-0.4,0.8-0.6,1.4-0.6s1.1,0.2,1.4,0.6c0.4,0.4,0.6,0.8,0.6,1.4s-0.2,1.1-0.6,1.6l-3.4,3.5c-1,0.8-2,0.8-2.9,0
		C7.1,44,6.9,43.5,6.9,42.9z M6.9,9.1c0-0.6,0.2-1.1,0.6-1.5C7.9,7.2,8.4,7,9,7s1,0.2,1.4,0.6l3.4,3.6c0.4,0.4,0.6,0.9,0.6,1.4
		s-0.2,1.1-0.6,1.5c-0.4,0.4-0.9,0.6-1.4,0.6s-1.1-0.2-1.4-0.6l-3.5-3.5C7.1,10.2,6.9,9.7,6.9,9.1L6.9,9.1z M13,26
		c0-2.3,0.6-4.4,1.7-6.4s2.6-3.5,4.6-4.7c1.9-1.1,4-1.7,6.2-1.7c1.7,0,3.3,0.3,4.9,1c1.5,0.7,2.9,1.6,4,2.7c1.1,1.1,2,2.5,2.7,4.1
		s1,3.2,1,4.9c0,2.3-0.5,4.4-1.7,6.4c-1.1,2-2.6,3.5-4.6,4.7s-4,1.7-6.3,1.7s-4.4-0.6-6.3-1.7c-1.9-1.2-3.4-2.7-4.6-4.7
		C13.6,30.4,13,28.3,13,26z M17.1,26c0,2.4,0.8,4.4,2.5,6.1c1.6,1.7,3.6,2.5,6,2.5s4.4-0.9,6-2.5c1.7-1.7,2.5-3.7,2.5-6.1
		s-0.8-4.4-2.5-6c-1.7-1.7-3.6-2.5-6-2.5s-4.3,0.8-6,2.5C17.9,21.6,17.1,23.6,17.1,26z M23.5,45c0-0.6,0.2-1.1,0.6-1.5
		s0.9-0.6,1.4-0.6s1.1,0.2,1.5,0.6s0.6,0.9,0.6,1.5v4.9c0,0.6-0.2,1.1-0.6,1.5C26.5,51.8,26,52,25.5,52s-1.1-0.2-1.4-0.6
		c-0.4-0.4-0.6-0.9-0.6-1.5C23.5,49.9,23.5,45,23.5,45z M23.5,7.1v-5c0-0.6,0.2-1.1,0.6-1.5S24.9,0,25.5,0s1,0.2,1.4,0.6
		c0.4,0.4,0.6,0.9,0.6,1.5v5c0,0.6-0.2,1-0.6,1.4s-0.9,0.6-1.4,0.6s-1.1-0.2-1.4-0.6C23.7,8.1,23.5,7.6,23.5,7.1L23.5,7.1z
		 M36.7,39.3c0-0.6,0.2-1,0.5-1.4c0.4-0.4,0.8-0.6,1.3-0.6c0.6,0,1.1,0.2,1.4,0.6l3.5,3.5c0.4,0.4,0.6,0.9,0.6,1.5s-0.2,1-0.6,1.4
		c-1,0.8-1.9,0.8-2.9,0l-3.4-3.5C36.9,40.5,36.7,40,36.7,39.3z M36.7,12.6c0-0.6,0.2-1.1,0.5-1.4l3.4-3.6C41.1,7.2,41.6,7,42.1,7
		c0.6,0,1.1,0.2,1.4,0.6c0.4,0.4,0.6,0.9,0.6,1.5c0,0.6-0.2,1.1-0.6,1.5L40,14.1c-0.4,0.4-0.9,0.6-1.4,0.6s-1-0.2-1.3-0.6
		S36.7,13.2,36.7,12.6z M42.1,26c0-0.6,0.2-1.1,0.6-1.5c0.4-0.4,0.8-0.6,1.4-0.6h4.8c0.5,0,1,0.2,1.4,0.6S51,25.4,51,26
		s-0.2,1-0.6,1.5c-0.4,0.4-0.9,0.6-1.4,0.6h-4.8c-0.5,0-1-0.2-1.4-0.6S42.2,26.6,42.1,26L42.1,26z"/>
</g>
</svg>
