<?xml version="1.0" encoding="utf-8"?>
<!-- Generator: Adobe Illustrator 27.0.1, SVG Export Plug-In . SVG Version: 6.00 Build 0)  -->
<svg version="1.1" id="clearsky" xmlns="http://www.w3.org/2000/svg" xmlns:xlink="http://www.w3.org/1999/xlink" x="0px" y="0px"
	 viewBox="0 0 1417.3 1417.3" style="enable-background:new 0 0 1417.3 1417.3;" xml:space="preserve"fill="#CA6800;">
<path class="st0" d="M15.6,708.7c0-16.3,5.4-29.9,16.3-40.8c10.9-10.9,24.5-16.3,38.1-16.3h133.2c16.3,0,27.2,5.4,38.1,16.3
	c10.9,10.9,16.3,24.5,16.3,40.8s-5.4,27.2-13.6,40.8c-10.9,10.9-24.5,16.3-38.1,16.3H72.7c-13.6,0-27.2-5.4-38.1-16.3
	C21,735.8,15.6,725,15.6,708.7L15.6,708.7z M203.1,1168c0-16.3,5.4-27.2,16.3-40.8l95.1-95.1c10.9-10.9,21.7-16.3,38.1-16.3
	s29.9,5.4,38.1,16.3c10.9,10.9,16.3,21.7,16.3,38.1c0,16.3-5.4,29.9-16.3,43.5l-92.4,95.1c-27.2,21.7-54.4,21.7-78.8,0
	C208.6,1197.9,203.1,1184.3,203.1,1168z M203.1,249.3c0-16.3,5.4-29.9,16.3-40.8c10.9-10.9,24.5-16.3,40.8-16.3
	c16.3,0,27.2,5.4,38.1,16.3l92.4,97.8c10.9,10.9,16.3,24.5,16.3,38.1c0,13.6-5.4,29.9-16.3,40.8c-10.9,10.9-24.5,16.3-38.1,16.3
	s-29.9-5.4-38.1-16.3l-95.1-95.1C208.6,279.2,203.1,265.6,203.1,249.3L203.1,249.3z M368.9,708.7c0-62.5,16.3-119.6,46.2-173.9
	s70.7-95.1,125-127.7c51.6-29.9,108.7-46.2,168.5-46.2c46.2,0,89.7,8.2,133.2,27.2c40.8,19,78.8,43.5,108.7,73.4
	c29.9,29.9,54.4,67.9,73.4,111.4c19,43.5,27.2,87,27.2,133.2c0,62.5-13.6,119.6-46.2,173.9c-29.9,54.4-70.7,95.1-125,127.7
	c-54.4,32.6-108.7,46.2-171.2,46.2s-119.6-16.3-171.2-46.2c-51.6-32.6-92.4-73.4-125-127.7C385.2,828.3,368.9,771.2,368.9,708.7z
	 M480.4,708.7c0,65.2,21.7,119.6,67.9,165.8c43.5,46.2,97.8,67.9,163.1,67.9s119.6-24.5,163.1-67.9c46.2-46.2,67.9-100.6,67.9-165.8
	s-21.7-119.6-67.9-163.1c-46.2-46.2-97.8-67.9-163.1-67.9s-116.9,21.7-163.1,67.9C502.1,589.1,480.4,643.4,480.4,708.7z
	 M654.3,1225.1c0-16.3,5.4-29.9,16.3-40.8c10.9-10.9,24.5-16.3,38.1-16.3s29.9,5.4,40.8,16.3c10.9,10.9,16.3,24.5,16.3,40.8v133.2
	c0,16.3-5.4,29.9-16.3,40.8c-13.6,10.9-27.2,16.3-40.8,16.3s-29.9-5.4-38.1-16.3c-10.9-10.9-16.3-24.5-16.3-40.8V1225.1z M654.3,195
	V59.1c0-16.3,5.4-29.9,16.3-40.8C681.5,7.4,692.4,2,708.7,2s27.2,5.4,38.1,16.3C757.6,29.2,763,42.8,763,59.1V195
	c0,16.3-5.4,27.2-16.3,38.1c-10.9,10.9-24.5,16.3-38.1,16.3s-29.9-5.4-38.1-16.3C659.7,222.2,654.3,208.6,654.3,195L654.3,195z
	 M1013.1,1070.1c0-16.3,5.4-27.2,13.6-38.1c10.9-10.9,21.7-16.3,35.3-16.3c16.3,0,29.9,5.4,38.1,16.3l95.1,95.1
	c10.9,10.9,16.3,24.5,16.3,40.8s-5.4,27.2-16.3,38.1c-27.2,21.7-51.6,21.7-78.8,0l-92.4-95.1
	C1018.5,1102.8,1013.1,1089.2,1013.1,1070.1z M1013.1,344.5c0-16.3,5.4-29.9,13.6-38.1l92.4-97.8c13.6-10.9,27.2-16.3,40.8-16.3
	c16.3,0,29.9,5.4,38.1,16.3c10.9,10.9,16.3,24.5,16.3,40.8s-5.4,29.9-16.3,40.8l-95.1,95.1c-10.9,10.9-24.5,16.3-38.1,16.3
	c-13.6,0-27.2-5.4-35.3-16.3C1021.2,374.4,1013.1,360.8,1013.1,344.5z M1159.8,708.7c0-16.3,5.4-29.9,16.3-40.8
	c10.9-10.9,21.7-16.3,38.1-16.3h130.5c13.6,0,27.2,5.4,38.1,16.3c10.9,10.9,19,24.5,19,40.8s-5.4,27.2-16.3,40.8
	c-10.9,10.9-24.5,16.3-38.1,16.3h-130.5c-13.6,0-27.2-5.4-38.1-16.3C1168,738.6,1162.6,725,1159.8,708.7L1159.8,708.7z"/>
</svg>
