<?xml version="1.0" encoding="UTF-8"?><svg id="Layer_2" xmlns="http://www.w3.org/2000/svg" viewBox="0 0 51 52"><defs><style>.cls-1{fill:#ca6800;}</style></defs><g id="Layer_1-2"><path class="cls-1" d="M0,25.98c0-.59,.19-1.1,.6-1.52,.41-.39,.91-.59,1.44-.59H6.94c.55,0,1.01,.2,1.39,.61,.36,.42,.55,.91,.55,1.49s-.17,1.08-.53,1.49c-.36,.42-.84,.61-1.39,.61H2.06c-.55,0-1.03-.2-1.44-.61-.41-.42-.62-.9-.62-1.49Zm6.87,16.95c0-.56,.19-1.05,.55-1.49l3.53-3.5c.36-.39,.84-.56,1.42-.56s1.06,.2,1.44,.56c.38,.37,.58,.83,.58,1.39s-.19,1.13-.58,1.57l-3.41,3.47c-.98,.78-1.97,.78-2.95,0-.38-.39-.58-.88-.58-1.44Zm0-33.85c0-.56,.19-1.05,.55-1.49,.48-.42,.98-.61,1.54-.61s1.01,.2,1.42,.59l3.43,3.6c.38,.37,.58,.86,.58,1.44s-.19,1.08-.58,1.47c-.38,.39-.86,.59-1.44,.59s-1.06-.2-1.42-.59l-3.51-3.5c-.38-.39-.58-.9-.58-1.49Zm6.12,16.9c0-2.27,.55-4.4,1.68-6.36,1.13-1.96,2.64-3.52,4.59-4.67,1.94-1.15,4.01-1.71,6.24-1.71,1.68,0,3.29,.34,4.85,1.03,1.54,.68,2.88,1.59,3.99,2.74,1.13,1.15,2.02,2.49,2.67,4.06,.65,1.57,.98,3.23,.98,4.94,0,2.3-.55,4.43-1.68,6.38-1.13,1.96-2.64,3.5-4.56,4.65-1.92,1.15-4.01,1.71-6.27,1.71s-4.35-.56-6.27-1.71c-1.92-1.15-3.43-2.69-4.56-4.65-1.08-1.98-1.66-4.11-1.66-6.41Zm4.08,0c0,2.4,.82,4.43,2.47,6.11,1.63,1.69,3.63,2.54,5.98,2.54s4.35-.86,6-2.54c1.66-1.69,2.5-3.72,2.5-6.11s-.84-4.35-2.5-6.04c-1.66-1.66-3.65-2.49-6-2.49s-4.32,.83-5.95,2.49c-1.68,1.69-2.5,3.69-2.5,6.04Zm6.39,19.03c0-.59,.19-1.08,.6-1.47,.41-.39,.89-.59,1.44-.59s1.08,.2,1.46,.59c.38,.39,.58,.88,.58,1.47v4.87c0,.59-.19,1.1-.6,1.52-.41,.42-.89,.61-1.44,.61s-1.06-.2-1.44-.61c-.41-.42-.6-.93-.6-1.52v-4.87Zm0-37.91V2.1c0-.56,.19-1.05,.6-1.47,.41-.42,.89-.64,1.46-.64s1.03,.2,1.44,.61c.41,.42,.6,.9,.6,1.47V7.09c0,.56-.19,1.03-.6,1.42-.41,.39-.89,.56-1.44,.56s-1.06-.2-1.44-.56c-.38-.37-.62-.86-.62-1.42Zm13.25,32.24c0-.56,.19-1.03,.55-1.37,.36-.39,.82-.56,1.34-.56,.58,0,1.06,.2,1.44,.56l3.51,3.5c.38,.42,.58,.93,.58,1.49s-.19,1.05-.58,1.44c-.96,.76-1.92,.76-2.88,0l-3.41-3.47c-.36-.44-.55-.95-.55-1.59Zm0-26.71c0-.61,.19-1.1,.55-1.44l3.41-3.6c.41-.39,.89-.59,1.42-.59,.58,0,1.06,.2,1.44,.61,.41,.42,.6,.9,.6,1.47,0,.61-.19,1.13-.58,1.52l-3.51,3.5c-.43,.39-.91,.59-1.44,.59s-.98-.2-1.34-.59c-.36-.39-.55-.88-.55-1.47Zm5.43,13.35c0-.59,.19-1.08,.58-1.52,.38-.39,.84-.59,1.37-.59h4.85c.55,0,1.03,.22,1.44,.64,.41,.42,.62,.91,.62,1.47s-.22,1.05-.62,1.47c-.41,.42-.89,.61-1.44,.61h-4.85c-.55,0-1.03-.2-1.39-.61s-.55-.88-.55-1.47Z"/></g></svg>