<svg width="34" height="34" viewBox="0 0 34 34" fill="none" xmlns="http://www.w3.org/2000/svg">
<path d="M0 17C0 14.7014 0.457177 12.5225 1.34747 10.4155C2.23776 8.30845 3.46491 6.51268 4.98081 5.00423C6.49671 3.49578 8.32541 2.27465 10.4429 1.36479C12.5603 0.454929 14.774 0 17.0599 0H19.8029C20.1879 0.0957747 20.3564 0.335211 20.3564 0.670422L20.4767 2.77746C20.5729 5.81831 21.6557 8.40422 23.7731 10.5352C25.8906 12.6662 28.4411 13.8155 31.4489 13.9352L33.4219 14.1028C33.8069 14.1028 33.9994 14.2944 33.9994 14.6535V17C34.0235 20.0648 33.2776 22.9141 31.7617 25.5239C30.2458 28.1338 28.2005 30.193 25.5778 31.7254C22.9791 33.2338 20.1157 34 17.0358 34C14.7018 34 12.4641 33.5451 10.3466 32.6592C8.22916 31.7732 6.42452 30.5521 4.90862 29.0437C3.39272 27.5352 2.18963 25.7155 1.29934 23.6324C0.457176 21.5254 0 19.3225 0 17ZM4.40332 17C4.40332 18.8197 4.76425 20.5437 5.48611 22.1718C6.20796 23.7761 7.17044 25.1408 8.34947 26.2423C9.5285 27.3437 10.876 28.2056 12.4159 28.8282C13.9318 29.4746 15.4959 29.7859 17.0839 29.7859C18.4795 29.7859 19.8992 29.5225 21.3188 28.9718C22.7385 28.4211 24.0619 27.6549 25.289 26.6732C26.5162 25.6916 27.5508 24.4465 28.4411 22.9141C29.3314 21.3817 29.8849 19.7296 30.1495 17.9099C26.2274 17.0958 23.0753 15.4197 20.7173 12.8817C18.3592 10.3437 16.9877 7.37465 16.6268 3.92676C14.3168 4.07042 12.2475 4.76479 10.3466 6.0338C8.46978 7.30282 7.00201 8.90704 5.96735 10.8704C4.93269 12.8338 4.40332 14.869 4.40332 17Z" fill="#FFFBE9"/>
</svg>
