<?xml version="1.0" encoding="utf-8"?>
<!-- Generator: Adobe Illustrator 27.0.1, SVG Export Plug-In . SVG Version: 6.00 Build 0)  -->
<svg version="1.1" id="Layer_2_00000117634239134103504840000016599522596202579092_"
	 xmlns="http://www.w3.org/2000/svg" xmlns:xlink="http://www.w3.org/1999/xlink" x="0px" y="0px" viewBox="0 0 34 34"
	 style="enable-background:new 0 0 34 34;" xml:space="preserve">
<style type="text/css">
	.st0{fill:#97BACE;}
</style>
<g id="Layer_1-2">
	<path id="clear-night" class="st0" d="M0,17c0-2.3,0.5-4.5,1.4-6.6C2.2,8.3,3.5,6.5,5,5c1.5-1.5,3.3-2.7,5.5-3.6S14.8,0,17.1,0h2.7
		c0.4,0.1,0.5,0.3,0.5,0.7l0.1,2.1c0.1,3,1.2,5.6,3.3,7.8s4.7,3.3,7.7,3.4l2,0.2c0.4,0,0.6,0.2,0.6,0.6V17c0,3.1-0.7,5.9-2.2,8.5
		c-1.5,2.6-3.6,4.7-6.2,6.2C23,33.2,20.1,34,17,34c-2.3,0-4.6-0.5-6.7-1.3S6.4,30.6,4.9,29c-1.5-1.5-2.7-3.3-3.6-5.4
		C0.5,21.5,0,19.3,0,17L0,17z M4.4,17c0,1.8,0.4,3.5,1.1,5.2c0.7,1.6,1.7,3,2.9,4.1s2.5,2,4.1,2.6c1.5,0.6,3.1,1,4.7,1
		c1.4,0,2.8-0.3,4.2-0.8c1.4-0.5,2.7-1.3,4-2.3s2.3-2.2,3.1-3.8s1.4-3.2,1.7-5c-3.9-0.8-7.1-2.5-9.4-5S17,7.4,16.6,3.9
		c-2.3,0.1-4.4,0.8-6.3,2.1C8.5,7.3,7,8.9,6,10.9C4.9,12.8,4.4,14.9,4.4,17L4.4,17z"/>
</g>
</svg>
