<svg width="309" height="240" viewBox="0 0 309 240" fill="none" xmlns="http://www.w3.org/2000/svg">
<path d="M5.44653 165.989C5.44653 203.952 36.2218 234.727 74.1851 234.727H246.032C277.668 234.727 303.314 209.081 303.314 177.445C303.314 152.973 287.967 132.085 266.373 123.88C268.039 119.131 268.944 114.025 268.944 108.707C268.944 83.3979 248.428 62.8811 223.119 62.8811C218.181 62.8811 213.425 63.6621 208.969 65.1074C199.846 30.8428 168.605 5.59891 131.467 5.59891C87.1768 5.59891 51.2722 41.5034 51.2722 85.7939C51.2722 90.884 51.7465 95.8634 52.6531 100.69C25.2364 109.726 5.44653 135.546 5.44653 165.989Z" stroke="#CBDDDD" stroke-width="10" stroke-linecap="round" stroke-linejoin="round"/>
</svg>
