<?xml version="1.0" encoding="utf-8"?>
<!-- Generator: Adobe Illustrator 27.0.1, SVG Export Plug-In . SVG Version: 6.00 Build 0)  -->
<svg version="1.1" id="Layer_2_00000011718792953599872790000001479721215806402456_"
	 xmlns="http://www.w3.org/2000/svg" xmlns:xlink="http://www.w3.org/1999/xlink" x="0px" y="0px" viewBox="0 0 53 41"
	 style="enable-background:new 0 0 53 41;" xml:space="preserve">
<style type="text/css">
	.st0{fill:#394152;}
</style>
<g id="Layer_1-2">
	<path id="cloudy-night" class="st0" d="M0,28.7c0-2.9,0.9-5.4,2.6-7.7c1.7-2.2,4-3.6,6.7-4.3c0.6-2.6,1.7-4.8,3.4-6.7
		c1.7-1.9,3.8-3.3,6.2-4.1c1.5-0.5,3.1-0.8,4.7-0.8c2,0,3.9,0.4,5.7,1.2c0.7-1.2,1.5-2.2,2.4-3c0.9-0.9,1.9-1.5,2.8-2
		c1-0.4,2-0.8,2.9-1S39.3,0,40.2,0c0.9,0,1.9,0.1,3,0.4l2,0.6c0.3,0.1,0.4,0.3,0.3,0.5l-0.3,1.5c-0.2,0.8-0.2,1.5-0.2,2.1
		c0,0.8,0.1,1.6,0.4,2.4c0.2,0.8,0.6,1.6,1.1,2.3c0.5,0.8,1.1,1.4,2,2.1c0.8,0.6,1.8,1.1,2.8,1.4l1.5,0.6c0.2,0.1,0.4,0.2,0.4,0.4
		c0,0.1,0,0.1,0,0.2l-0.4,1.7c-0.7,2.7-1.9,4.8-3.7,6.4c1,1.7,1.5,3.6,1.6,5.6c0,0.1,0,0.3,0,0.6c0,2.2-0.5,4.3-1.6,6.2
		c-1.1,1.9-2.6,3.4-4.4,4.5c-1.8,1.1-3.9,1.7-6,1.7H12c-2.2,0-4.2-0.5-6.1-1.7s-3.3-2.6-4.4-4.5C0.5,33,0,30.9,0,28.7L0,28.7z
		 M4.2,28.7c0,2.2,0.8,4.1,2.3,5.7c1.6,1.6,3.4,2.4,5.5,2.4h26.4c2.2,0,4-0.8,5.6-2.4c1.5-1.6,2.3-3.5,2.3-5.8s-0.8-4-2.3-5.6
		s-3.4-2.4-5.6-2.4H34l-0.2-1.9c-0.2-2.5-1.3-4.7-3.1-6.4s-4-2.8-6.4-3c-0.1,0-0.2,0-0.4,0s-0.3,0-0.4,0c-1.2,0-2.5,0.2-3.8,0.7
		v-0.1c-1.8,0.7-3.3,1.8-4.5,3.4c-1.2,1.6-1.9,3.4-2.2,5.4l-0.2,1.8l-1.7,0.1c-2.1,0.2-3.8,1.1-5.1,2.6C4.8,24.9,4.2,26.6,4.2,28.7
		L4.2,28.7z M32.8,8.5c2.6,2.3,4.2,4.9,4.8,7.9h0.8c3,0,5.6,1,7.7,2.9c0.8-0.8,1.4-1.7,1.8-2.7c-2.2-1.1-4-2.7-5.3-4.9
		c-1.3-2.2-1.9-4.5-1.9-6.9V4.3c-0.1,0-0.3,0-0.6,0c-1.4,0-2.8,0.3-4.2,1.1C34.7,6.1,33.6,7.2,32.8,8.5L32.8,8.5z"/>
</g>
</svg>
