<?xml version="1.0" encoding="UTF-8"?><svg id="Layer_2" xmlns="http://www.w3.org/2000/svg" viewBox="0 0 66 52"><g id="Layer_1-2"><path fill="#ca6800" id="cloudy-day" class="cls-1" d="M0,39.71c0,2.24,.54,4.3,1.62,6.18,1.08,1.89,2.55,3.38,4.42,4.47,1.87,1.09,3.88,1.64,6.06,1.64h26.59c2.19,0,4.22-.55,6.09-1.64,1.87-1.09,3.36-2.58,4.44-4.47,1.08-1.89,1.65-3.95,1.65-6.18,0-1.64-.34-3.3-1.03-4.97,1.87-2.28,2.8-5.04,2.8-8.19,0-1.76-.34-3.45-1.01-5.07-.66-1.61-1.6-2.98-2.75-4.15-1.15-1.17-2.5-2.11-4.1-2.78-1.6-.7-3.27-1.02-5.01-1.02-3.63,0-6.8,1.44-9.53,4.32-1.89-1.09-4.1-1.64-6.63-1.64-3.46,0-6.51,1.09-9.16,3.25-2.65,2.16-4.37,4.94-5.11,8.32-2.75,.65-4.98,2.06-6.73,4.3-1.74,2.24-2.63,4.77-2.63,7.62Zm4.2,0c0-2.09,.69-3.87,2.06-5.39s3.09-2.38,5.16-2.63l1.23-.07c.29,0,.47-.15,.47-.45l.17-1.34c.34-2.68,1.5-4.94,3.46-6.73,1.96-1.81,4.27-2.71,6.9-2.71s5.06,.92,7.05,2.73c2.01,1.81,3.12,4.05,3.36,6.73l.17,1.44c.05,.27,.22,.42,.52,.42h3.95c2.16,0,4.03,.79,5.6,2.38,1.57,1.59,2.36,3.45,2.36,5.64s-.79,4.17-2.33,5.76c-1.55,1.59-3.44,2.38-5.6,2.38H12.1c-2.16,0-4-.79-5.57-2.41-1.55-1.61-2.33-3.53-2.33-5.76ZM20.65,9.24c0,.6,.2,1.12,.59,1.56l1.62,1.59c.61,.47,1.13,.67,1.57,.62,.52,0,.96-.22,1.35-.65,.39-.42,.59-.94,.59-1.54s-.22-1.09-.64-1.47l-1.45-1.64c-.44-.4-.93-.6-1.5-.6s-1.1,.2-1.52,.62c-.42,.4-.61,.89-.61,1.49Zm13.11,11c1.69-1.66,3.71-2.48,6.02-2.48,2.43,0,4.49,.84,6.19,2.56,1.69,1.71,2.55,3.77,2.55,6.23,0,1.54-.42,3.08-1.25,4.57-2.38-2.38-5.23-3.58-8.57-3.58h-.79c-.61-2.71-1.99-5.14-4.15-7.3Zm4-13.11c0,.65,.2,1.14,.56,1.54,.37,.4,.86,.57,1.45,.57,.64,0,1.13-.2,1.52-.57,.39-.4,.56-.89,.56-1.54V2.04c0-.6-.2-1.07-.59-1.47-.39-.4-.88-.57-1.5-.57s-1.06,.2-1.45,.57c-.39,.37-.56,.87-.56,1.47V7.13h0Zm13.55,5.69c0,.65,.17,1.14,.54,1.54,.52,.4,1.03,.6,1.52,.6,.44,0,.93-.2,1.45-.6l3.51-3.55c.39-.45,.59-.97,.59-1.59s-.2-1.09-.59-1.49c-.39-.4-.88-.6-1.45-.6s-1.06,.2-1.42,.6l-3.61,3.55c-.37,.47-.54,.97-.54,1.54Zm1.94,29.4c0,.6,.2,1.12,.61,1.56l1.6,1.56c.37,.4,.83,.6,1.42,.6s1.08-.2,1.47-.62c.39-.42,.59-.92,.59-1.54,0-.55-.2-1.04-.59-1.44l-1.6-1.61c-.39-.4-.86-.6-1.4-.6-.59,0-1.08,.2-1.47,.6-.42,.4-.64,.89-.64,1.49Zm3.61-15.67c0,.57,.22,1.04,.64,1.44,.39,.4,.91,.6,1.5,.6h5.01c.56,0,1.03-.2,1.42-.57,.39-.37,.56-.87,.56-1.47s-.2-1.09-.56-1.49c-.37-.4-.86-.62-1.42-.62h-5.01c-.59,0-1.08,.2-1.5,.62-.44,.42-.64,.92-.64,1.49Z"/></g></svg>