<?xml version="1.0" encoding="utf-8"?>
<!-- Generator: Adobe Illustrator 27.0.1, SVG Export Plug-In . SVG Version: 6.00 Build 0)  -->
<svg version="1.1" id="Layer_2_00000026128730700978088320000001729409836268762545_"
	 xmlns="http://www.w3.org/2000/svg" xmlns:xlink="http://www.w3.org/1999/xlink" x="0px" y="0px" viewBox="0 0 66 52"
	 style="enable-background:new 0 0 66 52;" xml:space="preserve">
<style type="text/css">
	.st0{fill:#E6A339;}
</style>
<g id="Layer_1-2">
	<path id="cloudy-day" class="st0" d="M0,39.7c0,2.2,0.5,4.3,1.6,6.2c1.1,1.9,2.6,3.4,4.4,4.5S9.9,52,12.1,52h26.6
		c2.2,0,4.2-0.5,6.1-1.6s3.4-2.6,4.4-4.5c1.1-1.9,1.7-4,1.7-6.2c0-1.6-0.3-3.3-1-5c1.9-2.3,2.8-5,2.8-8.2c0-1.8-0.3-3.5-1-5.1
		c-0.7-1.6-1.6-3-2.8-4.1s-2.5-2.1-4.1-2.8c-1.6-0.7-3.3-1-5-1c-3.6,0-6.8,1.4-9.5,4.3c-1.9-1.1-4.1-1.6-6.6-1.6
		c-3.5,0-6.5,1.1-9.2,3.2s-4.4,4.9-5.1,8.3c-2.8,0.6-5,2.1-6.7,4.3C0.9,34.3,0,36.8,0,39.7L0,39.7z M4.2,39.7c0-2.1,0.7-3.9,2.1-5.4
		s3.1-2.4,5.2-2.6l1.2-0.1c0.3,0,0.5-0.1,0.5-0.5l0.2-1.3c0.3-2.7,1.5-4.9,3.5-6.7c2-1.8,4.3-2.7,6.9-2.7s5.1,0.9,7.1,2.7
		c2,1.8,3.1,4,3.4,6.7l0.2,1.4c0,0.3,0.2,0.4,0.5,0.4h4c2.2,0,4,0.8,5.6,2.4s2.4,3.5,2.4,5.6s-0.8,4.2-2.3,5.8
		c-1.5,1.6-3.4,2.4-5.6,2.4H12.1c-2.2,0-4-0.8-5.6-2.4C5,43.8,4.2,41.9,4.2,39.7L4.2,39.7z M20.6,9.2c0,0.6,0.2,1.1,0.6,1.6l1.6,1.6
		c0.6,0.5,1.1,0.7,1.6,0.6c0.5,0,1-0.2,1.4-0.6c0.4-0.4,0.6-0.9,0.6-1.5s-0.2-1.1-0.6-1.5l-1.5-1.6c-0.4-0.4-0.9-0.6-1.5-0.6
		s-1.1,0.2-1.5,0.6C20.8,8.1,20.6,8.6,20.6,9.2L20.6,9.2z M33.8,20.2c1.7-1.7,3.7-2.5,6-2.5c2.4,0,4.5,0.8,6.2,2.6
		c1.7,1.7,2.5,3.8,2.5,6.2c0,1.5-0.4,3.1-1.2,4.6c-2.4-2.4-5.2-3.6-8.6-3.6h-0.8C37.3,24.8,35.9,22.4,33.8,20.2z M37.8,7.1
		c0,0.7,0.2,1.1,0.6,1.5c0.4,0.4,0.9,0.6,1.5,0.6c0.6,0,1.1-0.2,1.5-0.6c0.4-0.4,0.6-0.9,0.6-1.5V2c0-0.6-0.2-1.1-0.6-1.5
		S40.4,0,39.8,0s-1.1,0.2-1.5,0.6S37.8,1.4,37.8,2L37.8,7.1L37.8,7.1L37.8,7.1z M51.3,12.8c0,0.6,0.2,1.1,0.5,1.5
		c0.5,0.4,1,0.6,1.5,0.6c0.4,0,0.9-0.2,1.5-0.6l3.5-3.6c0.4-0.4,0.6-1,0.6-1.6s-0.2-1.1-0.6-1.5s-0.9-0.6-1.5-0.6s-1.1,0.2-1.4,0.6
		l-3.6,3.6C51.5,11.7,51.3,12.2,51.3,12.8z M53.2,42.2c0,0.6,0.2,1.1,0.6,1.6l1.6,1.6c0.4,0.4,0.8,0.6,1.4,0.6s1.1-0.2,1.5-0.6
		s0.6-0.9,0.6-1.5c0-0.5-0.2-1-0.6-1.4l-1.6-1.6c-0.4-0.4-0.9-0.6-1.4-0.6c-0.6,0-1.1,0.2-1.5,0.6C53.5,41.1,53.2,41.6,53.2,42.2
		L53.2,42.2z M56.9,26.5c0,0.6,0.2,1,0.6,1.4c0.4,0.4,0.9,0.6,1.5,0.6h5c0.6,0,1-0.2,1.4-0.6c0.4-0.4,0.6-0.9,0.6-1.5
		s-0.2-1.1-0.6-1.5c-0.4-0.4-0.9-0.6-1.4-0.6h-5c-0.6,0-1.1,0.2-1.5,0.6C57.1,25.5,56.9,26,56.9,26.5z"/>
</g>
</svg>
