<?xml version="1.0" encoding="UTF-8"?><svg id="Layer_2" xmlns="http://www.w3.org/2000/svg" viewBox="0 0 53 41"><g fill="#b3bfd2" id="Layer_1-2"><path id="cloudy-night" class="cls-1" d="M0,28.69c0-2.88,.85-5.42,2.59-7.66,1.73-2.24,3.95-3.65,6.68-4.28,.56-2.56,1.71-4.8,3.41-6.71,1.71-1.91,3.78-3.28,6.17-4.1,1.51-.52,3.07-.8,4.71-.8,1.98,0,3.9,.4,5.73,1.19,.68-1.17,1.49-2.19,2.41-3.03,.93-.85,1.88-1.52,2.85-1.96,.98-.45,1.95-.8,2.88-1.02,.93-.22,1.85-.32,2.73-.32,.93,0,1.93,.12,3,.4l2,.62c.34,.15,.44,.32,.34,.55l-.34,1.49c-.17,.77-.24,1.49-.24,2.14,0,.77,.12,1.57,.37,2.36,.24,.8,.59,1.57,1.07,2.34,.46,.77,1.12,1.44,1.95,2.06,.83,.62,1.76,1.09,2.8,1.42l1.51,.55c.24,.07,.37,.2,.37,.4,0,.05-.02,.1-.05,.17l-.44,1.67c-.66,2.69-1.9,4.8-3.66,6.39,.98,1.74,1.51,3.61,1.59,5.57,.02,.12,.02,.3,.02,.57,0,2.21-.54,4.28-1.63,6.17-1.07,1.89-2.56,3.38-4.39,4.48-1.85,1.09-3.88,1.67-6.05,1.67H12.02c-2.17,0-4.2-.55-6.05-1.67-1.85-1.12-3.29-2.61-4.37-4.48-1.07-1.86-1.61-3.93-1.61-6.17Zm4.17,0c0,2.21,.78,4.13,2.34,5.74,1.56,1.62,3.39,2.44,5.51,2.44h26.37c2.17,0,4.02-.8,5.56-2.41,1.54-1.62,2.32-3.53,2.32-5.77s-.78-4.05-2.34-5.62c-1.56-1.57-3.41-2.36-5.56-2.36h-4.34l-.24-1.86c-.24-2.51-1.27-4.67-3.07-6.44-1.8-1.77-3.95-2.76-6.41-2.98-.07,0-.2,0-.37-.02-.17-.02-.27-.02-.37-.02-1.24,0-2.49,.25-3.76,.72v-.05c-1.78,.7-3.29,1.84-4.49,3.41-1.22,1.57-1.95,3.36-2.2,5.4l-.17,1.79-1.66,.07c-2.05,.25-3.76,1.12-5.12,2.64-1.37,1.52-2,3.28-2,5.35ZM32.83,8.53c2.59,2.26,4.2,4.9,4.8,7.91h.78c3.02,0,5.61,.97,7.73,2.93,.8-.77,1.41-1.67,1.85-2.66-2.22-1.07-3.98-2.71-5.27-4.9-1.27-2.19-1.93-4.5-1.93-6.91v-.6c-.12-.02-.32-.02-.59-.02-1.41-.02-2.8,.32-4.15,1.09-1.34,.75-2.44,1.79-3.24,3.16Z"/></g></svg>