<svg width="35" height="34" viewBox="0 0 35 34" fill="none" xmlns="http://www.w3.org/2000/svg">
<path d="M9.60908 6.62363L6.84504 3.87495L4.67988 6.04011L7.42856 8.78879L9.60908 6.62363ZM0.76416 15.315H5.37089V18.3861H0.76416V15.315ZM16.1199 0.0360107H19.1911V4.56596H16.1199V0.0360107ZM28.466 3.86727L30.628 6.02783L27.8794 8.77651L25.7188 6.61442L28.466 3.86727ZM25.7019 27.0775L28.4506 29.8415L30.6158 27.6764L27.8517 24.9277L25.7019 27.0775ZM29.9401 15.315H34.5468V18.3861H29.9401V15.315ZM17.6555 7.63711C12.5727 7.63711 8.44204 11.7678 8.44204 16.8506C8.44204 21.9333 12.5727 26.064 17.6555 26.064C22.7383 26.064 26.869 21.9333 26.869 16.8506C26.869 11.7678 22.7383 7.63711 17.6555 7.63711ZM17.6555 22.9929C14.2619 22.9929 11.5132 20.2442 11.5132 16.8506C11.5132 13.4569 14.2619 10.7083 17.6555 10.7083C21.0491 10.7083 23.7978 13.4569 23.7978 16.8506C23.7978 20.2442 21.0491 22.9929 17.6555 22.9929ZM16.1199 29.1352H19.1911V33.6651H16.1199V29.1352ZM4.67988 27.661L6.84504 29.8262L9.59372 27.0622L7.42856 24.897L4.67988 27.661Z" fill="#E59F83"/>
</svg>
