<?xml version="1.0" encoding="utf-8"?>
<!-- Generator: Adobe Illustrator 27.0.1, SVG Export Plug-In . SVG Version: 6.00 Build 0)  -->
<svg version="1.1" id="Layer_2_00000166644085810881255320000015920772519220740530_"
	 xmlns="http://www.w3.org/2000/svg" xmlns:xlink="http://www.w3.org/1999/xlink" x="0px" y="0px" viewBox="0 0 61 48"
	 style="enable-background:new 0 0 61 48;" xml:space="preserve">
<style type="text/css">
	.st0{fill:#E6A339;}
</style>
<g id="Layer_1-2">
	<path id="mist-night" class="st0" d="M0,38.4c0,0.6,0.2,1,0.6,1.4c0.4,0.4,0.9,0.6,1.5,0.6h46c0.6,0,1.1-0.2,1.5-0.6
		c0.4-0.4,0.6-0.9,0.6-1.4c0-0.6-0.2-1.1-0.6-1.5c-0.4-0.4-0.9-0.6-1.5-0.6h-46c-0.6,0-1.1,0.2-1.5,0.6C0.2,37.3,0,37.8,0,38.4z
		 M6.4,30.8c0,0.6,0.2,1.1,0.6,1.5c0.3,0.4,0.8,0.7,1.5,0.7h46c0.6,0,1-0.2,1.4-0.6c0.4-0.4,0.6-0.9,0.6-1.5s-0.2-1.1-0.6-1.4
		c-0.4-0.4-0.9-0.6-1.4-0.6h-46c-0.6,0-1.1,0.2-1.5,0.6C6.7,29.7,6.5,30.2,6.4,30.8L6.4,30.8z M6.8,24.8v-0.1
		c-0.1,0.4,0,0.5,0.3,0.5h3.6c0.1,0,0.3-0.1,0.5-0.4c0.6-1.3,1.5-2.3,2.6-3.1s2.5-1.3,3.8-1.4l1.3-0.2c0.3,0,0.5-0.1,0.5-0.4
		l0.1-1.2c0.3-2.6,1.4-4.8,3.4-6.6c2-1.8,4.3-2.7,7-2.7s5,0.9,7,2.6c2,1.7,3.1,3.9,3.4,6.5l0.2,1.4c0,0.3,0.2,0.4,0.5,0.4h3.9
		c1.6,0,3,0.4,4.3,1.3c1.3,0.8,2.3,2,2.9,3.3c0.2,0.2,0.3,0.4,0.5,0.4h3.5c0.3,0,0.4-0.2,0.4-0.5c-0.5-1.4-0.9-2.2-1.1-2.6
		c1.8-1.6,3-3.7,3.7-6.3l0.4-1.6c0.1-0.1,0-0.3,0-0.4s-0.2-0.2-0.3-0.2l-1.5-0.5c-2.2-0.6-3.9-1.9-5-3.9c-1.2-2-1.5-4.1-0.9-6.3
		L52,1.5c0.1-0.2,0-0.4-0.3-0.6l-2.1-0.6c-2.7-0.7-5.4-0.4-8,0.6c-2.6,1.1-4.6,2.8-6.1,5.2c-2-0.8-3.9-1.1-5.7-1.1
		c-3.4,0-6.5,1.1-9.2,3.2c-2.7,2.1-4.4,4.9-5.2,8.2c-2.1,0.5-3.9,1.5-5.5,3S7.4,22.8,6.8,24.8L6.8,24.8z M10.7,45.9
		c0,0.6,0.2,1.1,0.6,1.5c0.4,0.4,0.9,0.7,1.5,0.7H59c0.6,0,1.1-0.2,1.5-0.6c0.4-0.4,0.6-0.9,0.6-1.5s-0.2-1-0.6-1.4
		c-0.4-0.4-0.9-0.6-1.5-0.6H12.9c-0.6,0-1.1,0.2-1.5,0.6C11,44.9,10.7,45.3,10.7,45.9L10.7,45.9z M39.2,8.4c0.9-1.4,2-2.5,3.5-3.3
		c1.5-0.8,3-1.1,4.6-0.9c-0.2,2.5,0.4,5,1.7,7.2c1.3,2.2,3.2,3.9,5.5,5c-0.4,0.9-1,1.7-1.8,2.6c-2.3-1.9-4.9-2.8-7.8-2.8h-0.8
		C43.3,13,41.7,10.4,39.2,8.4L39.2,8.4z"/>
</g>
</svg>
