<?xml version="1.0" encoding="utf-8"?>
<!-- Generator: Adobe Illustrator 27.0.1, SVG Export Plug-In . SVG Version: 6.00 Build 0)  -->
<svg version="1.1" id="Layer_2_00000029724631133960581900000017436679630886727325_"
	 xmlns="http://www.w3.org/2000/svg" xmlns:xlink="http://www.w3.org/1999/xlink" x="0px" y="0px" viewBox="0 0 72 58"
	 style="enable-background:new 0 0 72 58;" xml:space="preserve">
<style type="text/css">
	.st0{fill:#97BACE;}
</style>
<g id="Layer_1-2">
	<path id="mist-day" class="st0" d="M0,48.5c0,0.5,0.2,1,0.6,1.4c0.4,0.4,0.9,0.6,1.5,0.6H48c0.6,0,1.1-0.2,1.5-0.6
		c0.4-0.4,0.6-0.8,0.6-1.4s-0.2-1.1-0.6-1.5c-0.4-0.4-0.9-0.6-1.5-0.6H2.2c-0.6,0-1.1,0.2-1.5,0.6C0.2,47.5,0,47.9,0,48.5L0,48.5z
		 M6.4,41c0,0.5,0.2,1,0.6,1.4C7.5,42.8,7.9,43,8.5,43h45.9c0.6,0,1-0.2,1.5-0.6c0.4-0.4,0.6-0.9,0.6-1.5s-0.2-1-0.6-1.4
		C55.5,39.2,55,39,54.4,39H8.5c-0.6,0-1.1,0.2-1.5,0.6C6.6,40,6.4,40.4,6.4,41z M6.7,35.2c0,0.2,0.1,0.3,0.4,0.3h3.5
		c0.2,0,0.3-0.1,0.5-0.4c0.6-1.2,1.4-2.3,2.6-3.1c1.1-0.8,2.4-1.2,3.8-1.4l1.3-0.2c0.3,0,0.4-0.1,0.4-0.4l0.2-1.2
		c0.3-2.6,1.4-4.8,3.4-6.5c2-1.7,4.3-2.6,7-2.6s5,0.9,7,2.6c2,1.7,3.1,3.9,3.4,6.5l0.2,1.4c0,0.3,0.2,0.4,0.5,0.4h4
		c1.6,0,3,0.4,4.3,1.2c1.3,0.8,2.3,1.9,2.9,3.3c0.2,0.3,0.3,0.4,0.5,0.4H56c0.3,0,0.4-0.2,0.3-0.5l-0.5-1.3c1.9-2.3,2.8-4.9,2.8-8
		c0-1.7-0.3-3.3-1-4.9c-0.7-1.6-1.6-2.9-2.7-4c-1.1-1.1-2.5-2-4.1-2.7c-1.6-0.7-3.2-1-5-1c-3.8,0-6.9,1.4-9.4,4.1
		c-2.1-1-4.3-1.5-6.6-1.5c-3.4,0-6.5,1.1-9.2,3.2s-4.4,4.8-5.1,8.1c-4.4,1.1-7.3,3.8-8.8,8.1C6.7,35,6.7,35.1,6.7,35.2L6.7,35.2z
		 M10.7,55.9c0,0.6,0.2,1.1,0.7,1.5c0.4,0.4,0.9,0.6,1.4,0.6h45.9c0.6,0,1-0.2,1.5-0.6c0.4-0.4,0.6-0.9,0.6-1.5s-0.2-1-0.6-1.4
		c-0.4-0.4-0.9-0.5-1.5-0.5H12.8c-0.6,0-1.1,0.2-1.5,0.5C10.9,54.9,10.7,55.4,10.7,55.9L10.7,55.9z M26.8,9c0,0.6,0.2,1,0.6,1.4
		L29,12c0.4,0.4,0.9,0.6,1.4,0.6s1-0.2,1.5-0.6c0.4-0.4,0.6-0.9,0.6-1.5S32.3,9.5,31.9,9l-1.6-1.5c-0.4-0.4-0.9-0.6-1.5-0.6
		s-1.1,0.2-1.5,0.6C27,7.9,26.8,8.4,26.8,9L26.8,9z M39.9,19.6c1.6-1.6,3.6-2.4,6-2.4s4.5,0.8,6.2,2.5c1.7,1.7,2.5,3.7,2.5,6
		c0,1.6-0.4,3-1.2,4.3c-2.3-2.3-5.2-3.4-8.5-3.4H44C43.3,23.7,41.9,21.4,39.9,19.6z M43.8,7c0,0.6,0.2,1,0.6,1.4
		C44.8,8.8,45.2,9,45.8,9s1.1-0.2,1.5-0.6C47.8,8,48,7.6,48,7V2c0-0.6-0.2-1-0.6-1.5c-0.4-0.4-1-0.6-1.5-0.6s-1,0.2-1.5,0.6
		C44,1,43.8,1.5,43.8,2L43.8,7L43.8,7L43.8,7z M57.2,12.4c0,0.5,0.2,1,0.6,1.4c0.9,0.9,1.9,0.9,3,0l3.5-3.4c0.4-0.4,0.6-0.9,0.6-1.5
		c0-0.6-0.2-1-0.6-1.4c-0.4-0.4-0.9-0.6-1.5-0.6s-1.1,0.2-1.5,0.6L57.9,11C57.4,11.5,57.2,12,57.2,12.4L57.2,12.4z M59.2,40.9
		c0,0.6,0.2,1.1,0.6,1.5l1.6,1.6c0.4,0.4,0.9,0.6,1.4,0.6s1-0.2,1.5-0.6c0.4-0.4,0.6-0.9,0.6-1.5c0-0.5-0.2-1-0.6-1.3l-1.6-1.6
		c-0.4-0.4-0.9-0.6-1.5-0.6c-0.6,0-1.1,0.2-1.5,0.6C59.4,39.8,59.2,40.3,59.2,40.9L59.2,40.9z M62.9,25.7c0,0.6,0.2,1.1,0.6,1.5
		c0.4,0.4,0.9,0.6,1.4,0.6h5c0.6,0,1.1-0.2,1.4-0.6c0.4-0.4,0.6-0.9,0.6-1.5s-0.2-1.1-0.6-1.5c-0.4-0.4-0.9-0.6-1.4-0.6h-5
		c-0.6,0-1.1,0.2-1.5,0.6C63.1,24.6,62.9,25.1,62.9,25.7L62.9,25.7z"/>
</g>
</svg>
