<?xml version="1.0" encoding="UTF-8"?><svg id="Layer_2" xmlns="http://www.w3.org/2000/svg" viewBox="0 0 72 58"><defs><style>.cls-1{fill:#394152;}</style></defs><g id="Layer_1-2"><path id="mist-day" class="cls-1" d="M0,48.53c0,.55,.2,1.04,.61,1.42,.42,.39,.93,.58,1.54,.58H48.02c.59,0,1.08-.19,1.5-.58,.42-.39,.61-.84,.61-1.42s-.2-1.06-.61-1.45c-.42-.41-.91-.6-1.5-.6H2.16c-.61,0-1.13,.19-1.54,.6-.42,.41-.61,.87-.61,1.45Zm6.42-7.56c0,.55,.2,1.04,.61,1.4,.42,.43,.91,.65,1.47,.65H54.4c.56,0,1.05-.19,1.45-.6,.39-.41,.59-.89,.59-1.45s-.2-1.04-.56-1.42c-.39-.39-.86-.58-1.45-.58H8.53c-.59,0-1.08,.19-1.47,.58-.42,.41-.64,.87-.64,1.42Zm.32-5.78c0,.22,.12,.31,.39,.31h3.51c.17,0,.34-.12,.51-.39,.59-1.25,1.45-2.26,2.6-3.06,1.15-.79,2.43-1.25,3.82-1.35l1.32-.17c.27,0,.42-.14,.42-.43l.17-1.23c.27-2.6,1.37-4.77,3.36-6.53,1.99-1.73,4.31-2.63,7.01-2.63s4.98,.87,6.96,2.6c1.99,1.73,3.11,3.88,3.38,6.46l.17,1.4c0,.26,.15,.41,.47,.41h3.95c1.57,0,3.02,.41,4.31,1.25,1.3,.82,2.26,1.93,2.89,3.3,.17,.27,.32,.39,.49,.39h3.53c.32,0,.44-.17,.32-.55l-.49-1.32c1.86-2.26,2.77-4.91,2.77-7.97,0-1.71-.34-3.32-1.01-4.89-.66-1.57-1.57-2.89-2.72-4.02-1.13-1.13-2.5-2.02-4.09-2.7-1.59-.67-3.24-.96-5-.96-3.78,0-6.91,1.35-9.36,4.05-2.08-1.01-4.27-1.52-6.57-1.52-3.43,0-6.5,1.06-9.17,3.18s-4.39,4.82-5.15,8.12c-4.36,1.13-7.31,3.81-8.78,8.07-.02,.02-.02,.1-.02,.19Zm3.97,20.74c0,.58,.22,1.06,.66,1.45,.39,.41,.86,.63,1.45,.63H58.76c.56,0,1.05-.19,1.47-.6,.42-.41,.61-.89,.61-1.47s-.2-1.01-.61-1.4c-.42-.36-.91-.55-1.47-.55H12.82c-.59,0-1.08,.19-1.5,.55-.42,.39-.61,.84-.61,1.4ZM26.82,9.03c0,.58,.2,1.04,.56,1.42l1.59,1.54c.42,.43,.88,.65,1.42,.65s1.03-.19,1.47-.6c.42-.41,.64-.89,.64-1.47s-.2-1.08-.61-1.52l-1.57-1.47c-.39-.41-.88-.63-1.47-.63s-1.08,.19-1.47,.6c-.37,.39-.56,.89-.56,1.47Zm13.04,10.55c1.64-1.64,3.63-2.43,5.96-2.43s4.46,.84,6.15,2.5c1.69,1.66,2.55,3.69,2.55,6.02,0,1.57-.39,3.01-1.2,4.34-2.33-2.29-5.17-3.42-8.51-3.42h-.83c-.71-2.84-2.08-5.18-4.12-7.01Zm3.92-12.6c0,.55,.2,1.04,.59,1.42,.39,.39,.86,.58,1.45,.58s1.13-.19,1.54-.58c.42-.39,.61-.84,.61-1.42V2.05c0-.55-.22-1.04-.64-1.45-.44-.41-.96-.6-1.54-.6s-1.05,.19-1.45,.6c-.39,.41-.59,.89-.59,1.45V6.99h.02Zm13.46,5.47c0,.53,.2,1.04,.59,1.45,.91,.87,1.91,.87,3.02,0l3.51-3.44c.39-.43,.59-.94,.59-1.54,0-.55-.2-1.04-.59-1.42-.39-.39-.88-.58-1.45-.58s-1.08,.19-1.47,.58l-3.58,3.54c-.42,.43-.61,.92-.61,1.42Zm1.99,28.42c0,.58,.22,1.06,.64,1.45l1.57,1.57c.39,.39,.88,.58,1.42,.58s1.01-.19,1.5-.58c.39-.41,.59-.94,.59-1.54,0-.53-.2-.99-.59-1.35l-1.59-1.59c-.44-.39-.93-.58-1.47-.58-.59,0-1.08,.19-1.47,.6-.39,.39-.59,.87-.59,1.45Zm3.63-15.2c0,.58,.22,1.06,.64,1.45,.37,.41,.86,.6,1.45,.6h5.03c.56,0,1.05-.19,1.45-.6,.39-.41,.59-.89,.59-1.45s-.2-1.06-.59-1.45c-.39-.39-.86-.58-1.45-.58h-5.03c-.59,0-1.08,.19-1.47,.6-.42,.39-.61,.87-.61,1.42Z"/></g></svg>