<?xml version="1.0" encoding="UTF-8"?><svg id="Layer_2" xmlns="http://www.w3.org/2000/svg" viewBox="0 0 61 48"><g id="Layer_1-2"><path fill="#e7f3f6" id="mist-night" class="cls-1" d="M0,38.41c0,.56,.2,1.03,.62,1.4,.42,.39,.94,.56,1.53,.56H48.17c.59,0,1.09-.2,1.48-.56,.42-.39,.62-.86,.62-1.4,0-.59-.2-1.1-.59-1.5-.4-.42-.91-.61-1.51-.61H2.15c-.59,0-1.09,.2-1.51,.61-.42,.42-.64,.93-.64,1.5Zm6.45-7.63c0,.59,.22,1.06,.64,1.45,.35,.44,.82,.66,1.46,.66H54.57c.57,0,1.04-.2,1.43-.61,.4-.42,.57-.91,.57-1.5s-.2-1.06-.57-1.42c-.37-.37-.87-.56-1.43-.56H8.56c-.59,0-1.09,.2-1.48,.56-.42,.39-.62,.86-.62,1.42Zm.37-5.94v-.12c-.1,.37,0,.54,.3,.54h3.56c.15,0,.3-.12,.47-.37,.59-1.28,1.46-2.31,2.62-3.12s2.45-1.28,3.83-1.37l1.31-.2c.3,0,.47-.15,.47-.44l.15-1.23c.27-2.65,1.38-4.83,3.36-6.62,1.98-1.77,4.33-2.65,7.02-2.65s4.99,.88,6.97,2.63c1.98,1.74,3.14,3.93,3.41,6.55l.17,1.4c0,.29,.17,.44,.52,.44h3.91c1.58,0,3.04,.42,4.33,1.28,1.29,.83,2.27,1.96,2.89,3.34,.17,.25,.35,.37,.54,.37h3.51c.3,0,.42-.17,.37-.54-.54-1.37-.91-2.23-1.14-2.6,1.78-1.59,3.04-3.71,3.71-6.31l.42-1.62c.07-.15,.05-.29-.02-.39-.07-.1-.17-.17-.3-.17l-1.53-.54c-2.2-.64-3.88-1.91-5.04-3.88-1.16-1.96-1.46-4.05-.91-6.28l.32-1.42c.12-.22,.02-.42-.32-.56l-2.08-.56c-2.7-.66-5.37-.44-7.96,.64-2.6,1.08-4.62,2.82-6.11,5.2-1.95-.76-3.86-1.13-5.66-1.13-3.44,0-6.48,1.08-9.17,3.21-2.7,2.13-4.4,4.88-5.19,8.22-2.08,.49-3.91,1.47-5.49,2.97-1.58,1.5-2.62,3.29-3.24,5.35Zm3.91,21.05c0,.59,.22,1.06,.64,1.45,.42,.44,.91,.66,1.46,.66H58.95c.57,0,1.06-.2,1.46-.61,.4-.42,.59-.91,.59-1.5s-.2-1.03-.59-1.42c-.4-.39-.89-.56-1.46-.56H12.86c-.59,0-1.09,.2-1.48,.56-.42,.39-.64,.86-.64,1.42ZM39.19,8.42c.87-1.4,2.03-2.5,3.49-3.26,1.46-.76,2.99-1.08,4.62-.93-.17,2.55,.42,4.96,1.73,7.19,1.34,2.23,3.17,3.88,5.49,4.96-.37,.86-.99,1.74-1.85,2.63-2.27-1.86-4.87-2.77-7.76-2.77h-.79c-.79-3.21-2.42-5.82-4.92-7.8Z"/></g></svg>