<?xml version="1.0" encoding="UTF-8"?><svg id="Layer_2" xmlns="http://www.w3.org/2000/svg" viewBox="0 0 66 65"><g id="Layer_1-2"><g id="rain-day"><path fill="#fffefa" d="M53.38,14.69c.47,0,.93-.19,1.45-.61l3.51-3.48c.39-.44,.59-.95,.59-1.53s-.2-1.07-.59-1.46c-.39-.39-.88-.58-1.45-.58s-1.06,.19-1.5,.58l-3.54,3.48c-.37,.44-.56,.93-.56,1.51s.2,1.1,.56,1.49c.52,.41,1.01,.61,1.52,.61Z"/><path class="cls-1" d="M39.75,9.09c.61,0,1.1-.19,1.5-.58,.39-.39,.59-.88,.59-1.49V2.1c0-.61-.2-1.12-.59-1.51-.39-.39-.88-.58-1.5-.58s-1.1,.19-1.5,.58c-.39,.39-.59,.9-.59,1.51V7.02c0,.61,.2,1.1,.59,1.49,.39,.39,.88,.58,1.5,.58Z"/><path class="cls-1" d="M65.39,24.53c-.42-.39-.91-.58-1.52-.58h-5.01c-.56,0-1.06,.19-1.45,.61-.37,.41-.56,.93-.56,1.49s.2,1.02,.59,1.41c.39,.39,.88,.58,1.42,.58h5.01c.64,0,1.15-.19,1.55-.56,.39-.39,.59-.85,.59-1.44s-.2-1.12-.61-1.51Z"/><path class="cls-1" d="M22.86,12.18c.83,.83,1.79,.83,2.87,0,.39-.41,.59-.93,.59-1.49s-.2-1.05-.59-1.49l-1.55-1.61c-.39-.39-.88-.58-1.47-.58s-1.06,.19-1.47,.61c-.42,.39-.61,.88-.61,1.46s.2,1.12,.61,1.51l1.62,1.58Z"/><path class="cls-1" d="M56.74,39.96c-.39-.39-.86-.58-1.4-.58-.59,0-1.08,.19-1.5,.61-.39,.39-.61,.88-.61,1.44s.22,1.07,.64,1.53l1.52,1.56c.52,.51,1.01,.76,1.52,.76,.47,0,.96-.24,1.42-.76,.44-.44,.66-.95,.64-1.49-.02-.56-.22-1.05-.64-1.46l-1.6-1.61Z"/><path class="cls-1" d="M51.61,21.07c-.66-1.58-1.6-2.92-2.75-4.07-1.13-1.14-2.5-2.05-4.08-2.7-1.6-.68-3.27-1-5.01-1-3.71,0-6.83,1.34-9.35,4.04-1.94-1.05-4.17-1.56-6.7-1.56-3.46,0-6.53,1.07-9.21,3.19-2.68,2.12-4.35,4.85-5.08,8.16-2.75,.63-5.03,2.02-6.8,4.19-1.74,2.17-2.63,4.68-2.63,7.48,0,3.24,1.13,6.02,3.41,8.36,2.28,2.34,5.06,3.56,8.35,3.73,.27,0,.42-.15,.42-.41v-3.26c0-.29-.15-.44-.42-.44-2.09-.1-3.85-.93-5.33-2.48s-2.19-3.39-2.19-5.48,.69-3.8,2.06-5.29c1.38-1.49,3.09-2.34,5.16-2.58l1.23-.1c.32,0,.49-.15,.49-.44l.15-1.29c.27-2.63,1.38-4.85,3.36-6.6,1.99-1.78,4.32-2.66,7.02-2.66s5.03,.88,7.02,2.66c1.99,1.78,3.12,3.97,3.36,6.6l.17,1.39c0,.29,.15,.44,.44,.44h4.1c2.16,0,4,.78,5.57,2.34,1.57,1.56,2.36,3.39,2.36,5.53s-.74,3.87-2.21,5.41c-1.47,1.53-3.24,2.39-5.3,2.56-.27,0-.42,.15-.42,.44v3.26c0,.27,.15,.41,.42,.41,2.16-.05,4.1-.63,5.89-1.75,1.79-1.12,3.19-2.56,4.2-4.39,1.03-1.83,1.52-3.8,1.52-5.94,0-1.73-.34-3.34-1.01-4.78,1.87-2.29,2.77-4.95,2.77-7.99,0-1.73-.34-3.39-1.01-4.97Zm-4.27,9.28c-2.36-2.34-5.18-3.48-8.52-3.48h-.83c-.64-2.78-2.01-5.14-4.1-7.11,1.62-1.56,3.58-2.34,5.89-2.34s4.47,.85,6.16,2.53c1.69,1.68,2.55,3.73,2.55,6.11,0,1.36-.39,2.8-1.15,4.29Z"/><path class="cls-1" d="M21.07,40.13c-.27-.51-.69-.85-1.25-1.02-.59-.15-1.15-.1-1.65,.19-.49,.29-.79,.71-.91,1.27l-3.95,14.06c0,.12-.02,.29-.02,.51,0,.44,.12,.88,.39,1.29,.27,.44,.64,.71,1.1,.88,.47,.17,.98,.12,1.5-.15,.54-.27,.88-.71,1.08-1.34l3.88-14.18c.17-.51,.12-1-.17-1.51Z"/><path class="cls-1" d="M26.12,46.75c-.61-.17-1.18-.1-1.67,.19-.49,.29-.81,.73-.91,1.29l-3.93,14.11c-.1,.22-.12,.39-.12,.51,0,.39,.15,.8,.42,1.22,.27,.41,.69,.71,1.2,.88,.02,0,.1,0,.25,.02,.15,.02,.27,.02,.37,.02,.34,0,.64-.05,.91-.17,.47-.19,.81-.66,1.01-1.41l3.85-14.08c.17-.56,.12-1.1-.15-1.58-.27-.49-.69-.83-1.23-1Z"/><path class="cls-1" d="M36.36,39.27c-.56-.17-1.1-.12-1.57,.15-.49,.27-.81,.68-.96,1.22l-4.1,14.18s-.02,.12-.05,.19c-.02,.07-.02,.15-.05,.19-.02,.05,0,.12,0,.17,.05,.93,.56,1.58,1.55,2.02l.61,.1c.39,0,.79-.12,1.15-.39,.37-.27,.64-.66,.79-1.22l4.05-14.08c.17-.58,.12-1.1-.17-1.58-.27-.49-.69-.8-1.25-.95Z"/></g></g></svg>