<?xml version="1.0" encoding="utf-8"?>
<!-- Generator: Adobe Illustrator 27.0.1, SVG Export Plug-In . SVG Version: 6.00 Build 0)  -->
<svg version="1.1" id="Layer_2_00000181046948209844116360000016325943756123946669_"
	 xmlns="http://www.w3.org/2000/svg" xmlns:xlink="http://www.w3.org/1999/xlink" x="0px" y="0px" viewBox="0 0 54 53"
	 style="enable-background:new 0 0 54 53;" xml:space="preserve">
<style type="text/css">
	.st0{fill:#B3BFD2;}
</style>
<g id="Layer_1-2">
	<g id="rain-night">
		<path class="st0" d="M52.1,12.8c-2-0.6-3.6-1.7-4.7-3.2c-1.1-1.6-1.7-3.2-1.7-4.8c0-0.6,0.1-1.2,0.2-1.8L46.5,1l-2.1-0.6L44,0.3
			C42.9,0.1,41.8,0,40.9,0S39,0.1,38.1,0.3c-1,0.2-2,0.5-3,1c-1,0.5-2,1.1-3,1.9C31.3,4,30.4,5,29.7,6.1c-1.8-0.8-3.8-1.2-5.8-1.2
			c-3.5,0-6.6,1-9.3,3.1s-4.4,4.7-5.1,8c-2.8,0.6-5.1,2-6.8,4.1C0.9,22.3,0,24.7,0,27.5c0,3.2,1.1,5.9,3.4,8.1
			c2.3,2.3,5.1,3.5,8.4,3.6c0.3,0,0.4-0.1,0.4-0.4v-3.2c0-0.3-0.1-0.4-0.4-0.4c-2.1-0.2-3.9-1-5.4-2.5c-1.5-1.5-2.2-3.2-2.2-5.2
			s0.7-3.7,2.1-5.1c1.4-1.5,3.1-2.3,5.2-2.5l1.3-0.2c0.3,0,0.5-0.1,0.5-0.4l0.2-1.2c0.3-2.6,1.4-4.7,3.4-6.4c2-1.7,4.4-2.6,7-2.6
			s5,0.9,7,2.6c2,1.7,3.2,3.9,3.4,6.5l0.2,1.4c0,0.3,0.2,0.4,0.4,0.4h4c2.2,0,4.1,0.8,5.7,2.3c1.6,1.5,2.4,3.3,2.4,5.4
			s-0.7,3.8-2.2,5.2c-1.5,1.5-3.3,2.3-5.4,2.5c-0.3,0-0.5,0.1-0.5,0.4v3.2c0,0.3,0.2,0.4,0.5,0.4c3.3-0.1,6.1-1.3,8.4-3.6
			c2.3-2.3,3.4-5,3.4-8.2c0-2.1-0.5-4-1.6-5.8c2-1.7,3.3-3.8,3.9-6.2v-0.3l0.5-1.9L52.1,12.8L52.1,12.8z M47,18.6
			c-2.3-1.9-5-2.9-8-2.9h-0.8c-0.6-2.8-2.2-5.3-4.8-7.5c0.8-1.3,1.9-2.4,3.3-3.1C38,4.4,39.5,4,41.1,4h0.5c0,0.2,0,0.5,0,0.9
			c0,2.3,0.6,4.4,1.9,6.4c1.3,2,3.1,3.6,5.4,4.7C48.4,17,47.7,17.9,47,18.6L47,18.6z"/>
		<path class="st0" d="M21.2,28.7c-0.3-0.5-0.7-0.8-1.3-0.9c-0.6-0.1-1.2-0.1-1.6,0.2c-0.5,0.3-0.8,0.7-1,1.2l-3.9,13.7
			c-0.1,0.4-0.1,0.6-0.1,0.6c0,0.4,0.1,0.7,0.4,1.1s0.6,0.6,1.1,0.8c0.5,0.2,1.1,0.1,1.6-0.1s0.8-0.7,1-1.2l4-13.8
			C21.6,29.7,21.5,29.1,21.2,28.7L21.2,28.7z"/>
		<path class="st0" d="M26.3,35.2c-0.6-0.1-1.2-0.1-1.7,0.2s-0.9,0.7-1,1.3l-3.9,13.7c0,0.2-0.1,0.4-0.1,0.6c0,0.4,0.1,0.8,0.4,1.2
			s0.6,0.6,1.1,0.8h0c0.2,0.1,0.4,0.1,0.5,0.1c0.2,0,0.5-0.1,0.9-0.2c0.5-0.2,0.8-0.6,1.1-1.3l4-13.8c0.2-0.5,0.1-1-0.1-1.5
			S26.8,35.3,26.3,35.2L26.3,35.2z"/>
		<path class="st0" d="M36.6,27.9C36,27.7,35.5,27.8,35,28c-0.5,0.3-0.8,0.7-1,1.2l-4.1,13.8c0,0,0,0.2,0,0.4c0,0.2,0,0.3,0,0.4
			c0,0.9,0.5,1.5,1.6,1.8c0.2,0,0.4,0.1,0.6,0.1c0.4,0,0.7,0,0.9-0.2c0.5-0.2,0.9-0.6,1.1-1.3l4-13.8c0.2-0.5,0.1-1-0.2-1.5
			S37.1,28,36.6,27.9L36.6,27.9z"/>
	</g>
</g>
</svg>
