<?xml version="1.0" encoding="utf-8"?>
<!-- Generator: Adobe Illustrator 27.0.1, SVG Export Plug-In . SVG Version: 6.00 Build 0)  -->
<svg version="1.1" id="Layer_2_00000036964596016598660390000007650465403827007630_"
	 xmlns="http://www.w3.org/2000/svg" xmlns:xlink="http://www.w3.org/1999/xlink" x="0px" y="0px" viewBox="0 0 66 65"
	 style="enable-background:new 0 0 66 65;" xml:space="preserve">
<style type="text/css">
	.st0{fill:#5D6D92;}
</style>
<g id="Layer_1-2">
	<g id="rain-day">
		<path class="st0" d="M53.4,14.7c0.5,0,0.9-0.2,1.5-0.6l3.5-3.5c0.4-0.4,0.6-0.9,0.6-1.5S58.7,8,58.3,7.6C58,7.2,57.5,7,56.9,7
			s-1.1,0.2-1.5,0.6l-3.5,3.5c-0.4,0.4-0.6,0.9-0.6,1.5s0.2,1.1,0.6,1.5C52.4,14.5,52.9,14.7,53.4,14.7L53.4,14.7z"/>
		<path class="st0" d="M39.8,9.1c0.6,0,1.1-0.2,1.5-0.6c0.4-0.4,0.6-0.9,0.6-1.5V2.1c0-0.6-0.2-1.1-0.6-1.5S40.4,0,39.8,0
			s-1.1,0.2-1.5,0.6c-0.4,0.4-0.6,0.9-0.6,1.5V7c0,0.6,0.2,1.1,0.6,1.5S39.1,9.1,39.8,9.1z"/>
		<path class="st0" d="M65.4,24.5c-0.4-0.4-0.9-0.6-1.5-0.6h-5c-0.6,0-1.1,0.2-1.5,0.6C57,25,56.8,25.5,56.8,26s0.2,1,0.6,1.4
			s0.9,0.6,1.4,0.6h5c0.6,0,1.2-0.2,1.6-0.6c0.4-0.4,0.6-0.9,0.6-1.4S65.8,24.9,65.4,24.5L65.4,24.5z"/>
		<path class="st0" d="M22.9,12.2c0.8,0.8,1.8,0.8,2.9,0c0.4-0.4,0.6-0.9,0.6-1.5s-0.2-1.1-0.6-1.5l-1.5-1.6C23.8,7.2,23.3,7,22.7,7
			s-1.1,0.2-1.5,0.6c-0.4,0.4-0.6,0.9-0.6,1.5s0.2,1.1,0.6,1.5L22.9,12.2L22.9,12.2z"/>
		<path class="st0" d="M56.7,40c-0.4-0.4-0.9-0.6-1.4-0.6c-0.6,0-1.1,0.2-1.5,0.6c-0.4,0.4-0.6,0.9-0.6,1.4s0.2,1.1,0.6,1.5l1.5,1.6
			c0.5,0.5,1,0.8,1.5,0.8c0.5,0,1-0.2,1.4-0.8c0.4-0.4,0.7-1,0.6-1.5c0-0.6-0.2-1-0.6-1.5L56.7,40L56.7,40z"/>
		<path class="st0" d="M51.6,21.1C51,19.5,50,18.1,48.9,17c-1.1-1.1-2.5-2-4.1-2.7c-1.6-0.7-3.3-1-5-1c-3.7,0-6.8,1.3-9.4,4
			c-1.9-1-4.2-1.6-6.7-1.6c-3.5,0-6.5,1.1-9.2,3.2s-4.3,4.9-5.1,8.2c-2.8,0.6-5,2-6.8,4.2C0.9,33.5,0,36,0,38.8c0,3.2,1.1,6,3.4,8.4
			s5.1,3.6,8.4,3.7c0.3,0,0.4-0.2,0.4-0.4v-3.3c0-0.3-0.1-0.4-0.4-0.4c-2.1-0.1-3.8-0.9-5.3-2.5s-2.2-3.4-2.2-5.5s0.7-3.8,2.1-5.3
			c1.4-1.5,3.1-2.3,5.2-2.6l1.2-0.1c0.3,0,0.5-0.1,0.5-0.4l0.1-1.3c0.3-2.6,1.4-4.9,3.4-6.6c2-1.8,4.3-2.7,7-2.7s5,0.9,7,2.7
			s3.1,4,3.4,6.6l0.2,1.4c0,0.3,0.2,0.4,0.4,0.4h4.1c2.2,0,4,0.8,5.6,2.3c1.6,1.6,2.4,3.4,2.4,5.5s-0.7,3.9-2.2,5.4
			c-1.5,1.5-3.2,2.4-5.3,2.6c-0.3,0-0.4,0.2-0.4,0.4v3.3c0,0.3,0.2,0.4,0.4,0.4c2.2,0,4.1-0.6,5.9-1.8s3.2-2.6,4.2-4.4
			c1-1.8,1.5-3.8,1.5-5.9c0-1.7-0.3-3.3-1-4.8c1.9-2.3,2.8-5,2.8-8C52.6,24.3,52.2,22.7,51.6,21.1L51.6,21.1z M47.3,30.3
			c-2.4-2.3-5.2-3.5-8.5-3.5H38c-0.6-2.8-2-5.1-4.1-7.1c1.6-1.6,3.6-2.3,5.9-2.3s4.5,0.9,6.2,2.5s2.5,3.7,2.5,6.1
			C48.5,27.4,48.1,28.9,47.3,30.3z"/>
		<path class="st0" d="M21.1,40.1c-0.3-0.5-0.7-0.8-1.2-1c-0.6-0.2-1.1-0.1-1.6,0.2c-0.5,0.3-0.8,0.7-0.9,1.3l-3.9,14.1
			c0,0.1,0,0.3,0,0.5c0,0.4,0.1,0.9,0.4,1.3c0.3,0.4,0.6,0.7,1.1,0.9c0.5,0.2,1,0.1,1.5-0.2c0.5-0.3,0.9-0.7,1.1-1.3l3.9-14.2
			C21.4,41.1,21.4,40.6,21.1,40.1z"/>
		<path class="st0" d="M26.1,46.7c-0.6-0.2-1.2-0.1-1.7,0.2c-0.5,0.3-0.8,0.7-0.9,1.3l-3.9,14.1c-0.1,0.2-0.1,0.4-0.1,0.5
			c0,0.4,0.1,0.8,0.4,1.2c0.3,0.4,0.7,0.7,1.2,0.9c0,0,0.1,0,0.2,0s0.3,0,0.4,0c0.3,0,0.6-0.1,0.9-0.2c0.5-0.2,0.8-0.7,1-1.4
			l3.9-14.1c0.2-0.6,0.1-1.1-0.1-1.6C27.1,47.3,26.7,46.9,26.1,46.7z"/>
		<path class="st0" d="M36.4,39.3c-0.6-0.2-1.1-0.1-1.6,0.2c-0.5,0.3-0.8,0.7-1,1.2l-4.1,14.2c0,0,0,0.1,0,0.2c0,0.1,0,0.2,0,0.2
			c0,0,0,0.1,0,0.2c0,0.9,0.6,1.6,1.5,2l0.6,0.1c0.4,0,0.8-0.1,1.1-0.4c0.4-0.3,0.6-0.7,0.8-1.2l4-14.1c0.2-0.6,0.1-1.1-0.2-1.6
			C37.3,39.7,36.9,39.4,36.4,39.3z"/>
	</g>
</g>
</svg>
