<?xml version="1.0" encoding="UTF-8"?><svg id="Layer_2" xmlns="http://www.w3.org/2000/svg" viewBox="0 0 54 53"><g id="Layer_1-2"><g id="rain-night"><path fill="#e7f3f6" class="cls-1" d="M52.12,12.8c-2-.57-3.56-1.66-4.67-3.21-1.11-1.57-1.65-3.18-1.65-4.82,0-.62,.07-1.23,.2-1.85l.49-1.9-2.1-.59-.37-.09c-1.16-.21-2.17-.33-3.09-.33s-1.88,.09-2.81,.31c-.96,.21-1.95,.52-2.96,.97-1.04,.45-2.02,1.07-2.96,1.9-.94,.83-1.78,1.8-2.47,2.92-1.83-.78-3.78-1.16-5.83-1.16-3.48,0-6.57,1.04-9.26,3.11-2.69,2.07-4.37,4.73-5.11,7.98-2.77,.62-5.06,1.97-6.84,4.08-1.8,2.16-2.69,4.61-2.69,7.34,0,3.16,1.14,5.89,3.43,8.14,2.3,2.26,5.09,3.49,8.4,3.63,.27,0,.42-.14,.42-.4v-3.25c0-.28-.15-.43-.42-.43-2.15-.17-3.95-.97-5.41-2.47-1.46-1.47-2.2-3.23-2.2-5.25s.69-3.66,2.07-5.13c1.38-1.47,3.11-2.3,5.19-2.54l1.31-.17c.32,0,.49-.14,.49-.4l.17-1.23c.27-2.56,1.38-4.73,3.38-6.43,2-1.73,4.35-2.59,7.04-2.59s5.04,.85,7.04,2.59c2,1.71,3.16,3.87,3.43,6.46l.2,1.38c0,.28,.15,.43,.44,.43h3.98c2.22,0,4.12,.76,5.73,2.26,1.58,1.5,2.4,3.3,2.4,5.41s-.74,3.78-2.2,5.25c-1.46,1.47-3.28,2.3-5.41,2.47-.32,0-.49,.14-.49,.43v3.25c0,.26,.17,.4,.49,.4,3.28-.09,6.07-1.31,8.35-3.59,2.27-2.28,3.41-5.01,3.41-8.19,0-2.07-.54-3.99-1.61-5.77,2-1.73,3.31-3.8,3.9-6.22v-.31l.47-1.88-1.88-.5Zm-5.16,5.79c-2.3-1.92-4.99-2.87-8.02-2.87h-.79c-.62-2.83-2.2-5.32-4.79-7.5,.79-1.33,1.88-2.37,3.28-3.11,1.41-.74,2.89-1.12,4.47-1.12h.52c-.02,.21-.02,.5-.02,.9,0,2.26,.64,4.39,1.93,6.43,1.28,2.04,3.09,3.59,5.36,4.65-.54,1.02-1.19,1.9-1.93,2.61Z"/><path class="cls-1" d="M21.23,28.71c-.3-.47-.72-.78-1.26-.93-.59-.14-1.16-.1-1.65,.17-.49,.26-.81,.66-.99,1.23l-3.88,13.7c-.07,.38-.12,.59-.12,.64,0,.36,.12,.71,.37,1.07,.25,.36,.62,.62,1.11,.78,.54,.17,1.06,.14,1.58-.12,.52-.26,.84-.66,1.01-1.21l4-13.82c.17-.55,.12-1.07-.17-1.52Z"/><path class="cls-1" d="M26.3,35.17c-.59-.14-1.16-.07-1.68,.19-.52,.26-.86,.71-1.04,1.26l-3.88,13.72c-.05,.19-.07,.4-.07,.59,0,.4,.12,.78,.37,1.16,.25,.38,.62,.64,1.11,.78h.05c.24,.08,.4,.12,.52,.12,.22,0,.52-.07,.94-.24,.49-.19,.84-.64,1.06-1.31l3.98-13.84c.17-.5,.12-1-.15-1.47-.27-.47-.67-.81-1.21-.97Z"/><path class="cls-1" d="M36.57,27.88c-.54-.17-1.06-.12-1.56,.17-.49,.28-.81,.69-.99,1.23l-4.07,13.8s-.02,.17-.05,.36c-.05,.17-.05,.28-.05,.36,0,.9,.52,1.47,1.58,1.78,.22,.05,.42,.07,.59,.07,.37,0,.67-.05,.91-.17,.52-.19,.89-.64,1.09-1.35l4.05-13.8c.15-.52,.07-1.02-.2-1.5-.27-.48-.74-.78-1.31-.95Z"/></g></g></svg>