<?xml version="1.0" encoding="UTF-8"?><svg id="Layer_2" xmlns="http://www.w3.org/2000/svg" viewBox="0 0 50 35"><defs><style>.cls-1{fill:#32405f;}</style></defs><g id="Layer_1-2"><path id="scat-day" class="cls-1" d="M0,22.97c0-2.78,.87-5.25,2.6-7.43,1.73-2.18,3.92-3.58,6.59-4.19,.75-3.32,2.45-6.03,5.08-8.16,2.62-2.13,5.65-3.2,9.05-3.2s6.28,1.04,8.88,3.1c2.6,2.06,4.28,4.72,5.05,7.96h.79c2.17,0,4.16,.53,5.99,1.57s3.3,2.49,4.36,4.33c1.06,1.84,1.61,3.82,1.61,6s-.51,4.11-1.52,5.93c-1.01,1.82-2.41,3.27-4.16,4.36-1.76,1.09-3.71,1.67-5.8,1.74H11.55c-3.22-.15-5.94-1.38-8.18-3.7-2.24-2.3-3.37-5.08-3.37-8.33Zm4.11,0c0,2.11,.72,3.92,2.17,5.47,1.44,1.55,3.2,2.37,5.27,2.49h26.92c2.07-.1,3.83-.94,5.27-2.49,1.47-1.55,2.19-3.39,2.19-5.47s-.79-3.95-2.36-5.49c-1.56-1.55-3.42-2.32-5.58-2.32h-3.85c-.26,0-.41-.15-.41-.44l-.17-1.38c-.26-2.61-1.4-4.82-3.37-6.58-1.97-1.77-4.26-2.66-6.88-2.66s-4.93,.9-6.86,2.66c-1.95,1.77-3.06,3.97-3.3,6.58l-.19,1.38c0,.29-.17,.44-.48,.44h-1.28c-2.02,.24-3.71,1.11-5.05,2.59-1.35,1.48-2.05,3.22-2.05,5.23Z"/></g></svg>