<?xml version="1.0" encoding="utf-8"?>
<!-- Generator: Adobe Illustrator 27.0.1, SVG Export Plug-In . SVG Version: 6.00 Build 0)  -->
<svg version="1.1" id="Layer_2_00000029740467535179047280000004198864382774562435_"
	 xmlns="http://www.w3.org/2000/svg" xmlns:xlink="http://www.w3.org/1999/xlink" x="0px" y="0px" viewBox="0 0 53 39"
	 style="enable-background:new 0 0 53 39;" xml:space="preserve">
<style type="text/css">
	.st0{fill:#FFFEFA;}
</style>
<g id="Layer_1-2">
	<path id="scat-night" class="st0" d="M0,26.5c0,2.2,0.5,4.3,1.6,6.2s2.5,3.4,4.4,4.5S10,39,12.2,39H39c2.2,0,4.3-0.5,6.1-1.7
		c1.9-1.1,3.4-2.6,4.5-4.5c1.1-1.9,1.7-4,1.7-6.2c0-1.6-0.3-3.3-1-5c1.9-2.3,2.8-5.1,2.8-8.3c0-2.4-0.6-4.6-1.7-6.6
		s-2.7-3.6-4.7-4.8c-2-1.2-4.2-1.8-6.5-1.8c-3.7,0-6.9,1.5-9.6,4.4c-1.9-1.1-4.1-1.6-6.7-1.6c-3.5,0-6.6,1.1-9.2,3.3
		c-2.7,2.2-4.4,5-5.1,8.4c-2.8,0.6-5,2.1-6.8,4.3S0,23.6,0,26.5L0,26.5z M4.2,26.5c0-2.1,0.7-3.9,2.1-5.4c1.4-1.5,3.1-2.4,5.2-2.7
		l1.7-0.1l0.2-1.8c0.4-2.7,1.5-5,3.5-6.8c2-1.8,4.3-2.7,7-2.7s5.1,0.9,7.1,2.8c2,1.8,3.1,4.1,3.4,6.8l0.2,1.9H39
		c2.2,0,4.1,0.8,5.7,2.4c1.6,1.6,2.4,3.5,2.4,5.7s-0.8,4.2-2.3,5.8c-1.6,1.6-3.5,2.4-5.7,2.4H12.2c-2.2,0-4-0.8-5.6-2.4
		C5,30.7,4.2,28.8,4.2,26.5L4.2,26.5z M34,6.8c1.7-1.7,3.7-2.5,6-2.5c2.5,0,4.5,0.9,6.2,2.6c1.7,1.7,2.6,3.8,2.6,6.3
		c0,1.6-0.4,3.1-1.3,4.6c-2.4-2.4-5.2-3.6-8.6-3.6h-0.8C37.5,11.4,36.1,9,34,6.8z"/>
</g>
</svg>
