<?xml version="1.0" encoding="UTF-8"?><svg id="Layer_2" xmlns="http://www.w3.org/2000/svg" viewBox="0 0 53 39"><g id="Layer_1-2"><path fill="#b3bfd2" id="scat-night" class="cls-1" d="M0,26.54c0,2.24,.54,4.33,1.63,6.24,1.09,1.91,2.55,3.42,4.43,4.53,1.88,1.11,3.91,1.69,6.14,1.69h26.77c2.2,0,4.26-.55,6.14-1.69,1.88-1.13,3.37-2.64,4.46-4.53,1.09-1.91,1.66-4,1.66-6.24,0-1.61-.35-3.27-1.04-5.04,1.88-2.34,2.8-5.11,2.8-8.31,0-2.39-.57-4.61-1.71-6.62-1.14-2.01-2.72-3.63-4.71-4.81-1.98-1.18-4.16-1.76-6.51-1.76-3.69,0-6.89,1.46-9.58,4.38-1.88-1.08-4.11-1.64-6.66-1.64-3.49,0-6.56,1.08-9.24,3.27-2.67,2.19-4.38,4.99-5.15,8.43-2.77,.63-5.03,2.06-6.79,4.33-1.76,2.27-2.65,4.86-2.65,7.75Zm4.24,0c0-2.09,.69-3.9,2.06-5.44,1.39-1.54,3.12-2.42,5.2-2.67l1.68-.08,.17-1.81c.35-2.72,1.51-5.01,3.49-6.82,1.98-1.84,4.31-2.74,6.96-2.74s5.08,.93,7.08,2.77c2.01,1.84,3.15,4.1,3.42,6.82l.25,1.89h4.41c2.18,0,4.06,.81,5.65,2.39,1.59,1.59,2.38,3.5,2.38,5.69s-.79,4.2-2.35,5.84c-1.56,1.64-3.47,2.44-5.65,2.44H12.21c-2.15,0-4.01-.81-5.6-2.44-1.59-1.66-2.38-3.6-2.38-5.84ZM34.03,6.82c1.71-1.66,3.71-2.49,6.04-2.49,2.45,0,4.53,.86,6.24,2.59,1.71,1.71,2.58,3.83,2.58,6.32,0,1.56-.42,3.1-1.29,4.63-2.38-2.44-5.25-3.65-8.64-3.65h-.77c-.67-2.79-2.06-5.26-4.16-7.4Z"/></g></svg>