<?xml version="1.0" encoding="utf-8"?>
<!-- Generator: Adobe Illustrator 27.0.1, SVG Export Plug-In . SVG Version: 6.00 Build 0)  -->
<svg version="1.1" id="Layer_2_00000115474032802972516120000011238105759026409618_"
	 xmlns="http://www.w3.org/2000/svg" xmlns:xlink="http://www.w3.org/1999/xlink" x="0px" y="0px" viewBox="0 0 50 35"
	 style="enable-background:new 0 0 50 35;" xml:space="preserve">
<style type="text/css">
	.st0{fill:#FFFEFA;}
</style>
<g id="Layer_1-2">
	<path id="scat-day" class="st0" d="M0,23c0-2.8,0.9-5.2,2.6-7.4s3.9-3.6,6.6-4.2c0.8-3.3,2.4-6,5.1-8.2c2.6-2.1,5.6-3.2,9-3.2
		s6.3,1,8.9,3.1s4.3,4.7,5,8H38c2.2,0,4.2,0.5,6,1.6s3.3,2.5,4.4,4.3c1.1,1.8,1.6,3.8,1.6,6s-0.5,4.1-1.5,5.9
		c-1,1.8-2.4,3.3-4.2,4.4c-1.8,1.1-3.7,1.7-5.8,1.7h-27c-3.2-0.2-5.9-1.4-8.2-3.7C1.1,29,0,26.2,0,23L0,23z M4.1,23
		c0,2.1,0.7,3.9,2.2,5.5c1.4,1.5,3.2,2.4,5.3,2.5h26.9c2.1-0.1,3.8-0.9,5.3-2.5c1.5-1.5,2.2-3.4,2.2-5.5s-0.8-4-2.4-5.5
		c-1.6-1.5-3.4-2.3-5.6-2.3h-3.8c-0.3,0-0.4-0.1-0.4-0.4l-0.2-1.4c-0.3-2.6-1.4-4.8-3.4-6.6c-2-1.8-4.3-2.7-6.9-2.7S18.4,5,16.5,6.8
		c-1.9,1.8-3.1,4-3.3,6.6L13,14.7c0,0.3-0.2,0.4-0.5,0.4h-1.3c-2,0.2-3.7,1.1-5.1,2.6C4.8,19.2,4.1,21,4.1,23L4.1,23z"/>
</g>
</svg>
