<svg width="53" height="39" viewBox="0 0 53 39" fill="none" xmlns="http://www.w3.org/2000/svg">
<path d="M0 26.5371C0 28.7779 0.544859 30.8677 1.63458 32.7812C2.7243 34.6946 4.18551 36.2053 6.06776 37.3131C7.95 38.4209 9.98084 39 12.2098 39H38.9822C41.1864 39 43.2421 38.4461 45.1243 37.3131C47.0065 36.1801 48.4925 34.6695 49.5822 32.7812C50.672 30.8677 51.2416 28.7779 51.2416 26.5371C51.2416 24.9258 50.8949 23.264 50.2014 21.5016C52.0836 19.1601 53 16.3906 53 13.193C53 10.8012 52.4304 8.58554 51.2911 6.57134C50.1519 4.55713 48.5668 2.94577 46.5855 1.76243C44.6042 0.579084 42.4248 0 40.072 0C36.3818 0 33.1869 1.4603 30.4874 4.38089C28.6051 3.29826 26.3762 2.74435 23.8252 2.74435C20.3332 2.74435 17.2621 3.82698 14.5874 6.01743C11.9126 8.20788 10.2037 11.0026 9.43598 14.4519C6.66215 15.0813 4.40841 16.5165 2.65 18.7824C0.891588 21.0484 0 23.6417 0 26.5371ZM4.23505 26.5371C4.23505 24.4474 4.9285 22.6346 6.29065 21.0988C7.67757 19.5629 9.41121 18.6817 11.4916 18.43L13.1757 18.3544L13.3491 16.5416C13.6958 13.8225 14.8598 11.5313 16.8411 9.71853C18.8224 7.88057 21.1505 6.97418 23.8005 6.97418C26.5 6.97418 28.8776 7.90575 30.8836 9.74371C32.8897 11.5817 34.029 13.8476 34.3014 16.5668L34.5491 18.4551H38.9575C41.1369 18.4551 43.0192 19.2608 44.6042 20.847C46.1892 22.4332 46.9818 24.3467 46.9818 26.5371C46.9818 28.8031 46.1893 30.7418 44.629 32.3783C43.0687 34.0148 41.1617 34.8205 38.9822 34.8205H12.2098C10.0551 34.8205 8.19766 34.0148 6.61262 32.3783C5.02757 30.7166 4.23505 28.7779 4.23505 26.5371ZM34.029 6.82311C35.7379 5.1614 37.7439 4.33054 40.072 4.33054C42.5238 4.33054 44.6042 5.18657 46.3131 6.92382C48.022 8.6359 48.8888 10.7508 48.8888 13.2434C48.8888 14.8044 48.4678 16.3402 47.6009 17.876C45.2234 15.4338 42.3505 14.2253 38.9575 14.2253H38.1897C37.521 11.4306 36.1341 8.9632 34.029 6.82311Z" fill="#FFFBE9"/>
</svg>
