<?xml version="1.0" encoding="UTF-8"?><svg id="Layer_2" xmlns="http://www.w3.org/2000/svg" viewBox="0 0 66 63"><g id="Layer_1-2"><path fill="#5d6d92" id="showers-day" class="cls-1" d="M0,37.62c0,3.14,1.13,5.83,3.41,8.1,2.28,2.27,5.06,3.45,8.35,3.61,.27,0,.42-.14,.42-.4v-3.16c0-.28-.15-.43-.42-.43-2.09-.09-3.85-.9-5.33-2.41-1.47-1.51-2.19-3.28-2.19-5.31s.69-3.68,2.06-5.12c1.38-1.44,3.09-2.27,5.16-2.5l1.23-.09c.32,0,.49-.14,.49-.43l.15-1.25c.27-2.55,1.38-4.7,3.36-6.4,1.99-1.72,4.32-2.57,7.02-2.57s5.03,.85,7.02,2.57c1.99,1.72,3.12,3.85,3.36,6.4l.17,1.35c0,.28,.15,.43,.44,.43h4.1c2.16,0,4,.76,5.57,2.27,1.57,1.51,2.36,3.28,2.36,5.36s-.74,3.75-2.21,5.24c-1.47,1.49-3.24,2.31-5.3,2.48-.27,0-.42,.14-.42,.43v3.16c0,.26,.15,.4,.42,.4,2.16-.05,4.1-.61,5.89-1.7s3.19-2.48,4.2-4.25c1.03-1.77,1.52-3.68,1.52-5.76,0-1.68-.34-3.24-1.01-4.63,1.87-2.22,2.77-4.79,2.77-7.75,0-1.68-.34-3.28-1.01-4.82-.66-1.53-1.6-2.83-2.75-3.94-1.13-1.11-2.5-1.98-4.08-2.62-1.6-.66-3.27-.97-5.01-.97-3.71,0-6.83,1.3-9.35,3.92-1.94-1.02-4.17-1.51-6.7-1.51-3.46,0-6.53,1.04-9.21,3.09-2.68,2.05-4.35,4.7-5.08,7.91-2.75,.61-5.03,1.96-6.8,4.06-1.74,2.1-2.63,4.53-2.63,7.25Zm13.28,15.82c0,.42,.12,.85,.39,1.25,.27,.42,.64,.68,1.1,.85,.47,.17,.98,.12,1.5-.14,.54-.26,.88-.68,1.08-1.3l.61-2.48c.17-.5,.12-.97-.17-1.46-.29-.5-.71-.83-1.25-.99-.61-.14-1.15-.07-1.65,.19-.49,.26-.79,.71-.91,1.25l-.69,2.34c0,.12-.02,.28-.02,.5Zm3.22-11.15c0,.9,.52,1.51,1.57,1.87,.54,.19,1.06,.14,1.57-.12,.52-.26,.83-.68,1.01-1.25l.59-2.43c.17-.5,.12-.97-.17-1.46-.27-.5-.69-.83-1.25-.99-.59-.14-1.15-.09-1.65,.19-.49,.28-.79,.68-.91,1.23l-.74,2.41c0,.19-.02,.38-.02,.57Zm3,18.63c0,.38,.15,.78,.42,1.18,.27,.4,.69,.68,1.2,.85,.02,0,.1,0,.25,.02,.15,.02,.27,.02,.37,.02,.34,0,.64-.05,.91-.17,.47-.19,.81-.64,1.01-1.37l.66-2.34c.17-.54,.12-1.06-.17-1.53-.29-.47-.71-.8-1.25-.94-.56-.17-1.1-.12-1.6,.17-.49,.28-.83,.68-.98,1.2l-.69,2.41c-.1,.21-.12,.38-.12,.5Zm1.13-52.11c0,.59,.2,1.09,.61,1.46l1.62,1.53c.83,.8,1.79,.8,2.87,0,.39-.4,.59-.9,.59-1.44s-.2-1.02-.59-1.44l-1.55-1.56c-.39-.38-.88-.57-1.47-.57s-1.06,.19-1.47,.59c-.42,.38-.61,.85-.61,1.42Zm2.19,40.8c0,.4,.12,.8,.39,1.2,.27,.4,.64,.66,1.15,.83,.56,.17,1.08,.12,1.57-.12,.47-.24,.81-.68,.98-1.32l.59-2.38c.17-.54,.12-1.06-.15-1.53-.27-.47-.69-.8-1.23-.97-.61-.17-1.18-.09-1.67,.19-.49,.28-.81,.71-.91,1.25l-.69,2.43c-.05,.07-.05,.21-.05,.43Zm6.83,4.06c.05,.9,.56,1.53,1.55,1.96l.61,.09c.39,0,.79-.12,1.15-.38,.37-.26,.64-.64,.79-1.18l.71-2.39c.15-.57,.07-1.09-.22-1.56-.29-.47-.74-.78-1.3-.87-.52-.17-1.01-.12-1.52,.17-.52,.28-.83,.68-1.01,1.2l-.66,2.41s-.02,.12-.05,.19c-.02,.07-.02,.14-.05,.19-.02,.05,0,.12,0,.17Zm3.44-11.24c0,.38,.12,.76,.37,1.13,.25,.38,.61,.64,1.1,.76l.61,.07c.47,0,.91-.14,1.28-.42,.37-.28,.59-.66,.69-1.11l.66-2.34c.17-.57,.12-1.06-.17-1.53-.27-.47-.69-.78-1.25-.92-.56-.17-1.1-.12-1.57,.14-.49,.26-.81,.66-.96,1.18l-.74,2.5c0,.19-.02,.38-.02,.54Zm.81-23.28c1.62-1.51,3.58-2.27,5.89-2.27s4.47,.83,6.16,2.46c1.69,1.63,2.55,3.61,2.55,5.93,0,1.32-.39,2.72-1.15,4.16-2.36-2.27-5.18-3.38-8.52-3.38h-.83c-.64-2.69-2.01-4.98-4.1-6.9Zm3.78-12.35c0,.59,.2,1.06,.59,1.44,.39,.38,.88,.57,1.5,.57s1.1-.19,1.5-.57c.39-.38,.59-.85,.59-1.44V2.03c0-.59-.2-1.09-.59-1.46-.39-.38-.88-.57-1.5-.57s-1.1,.19-1.5,.57c-.39,.38-.59,.87-.59,1.46V6.8Zm13.63,5.41c0,.59,.2,1.06,.56,1.44,.52,.4,1.01,.59,1.52,.59,.47,0,.93-.19,1.45-.59l3.51-3.38c.39-.43,.59-.92,.59-1.49s-.2-1.04-.59-1.42c-.39-.38-.88-.57-1.45-.57s-1.06,.19-1.5,.57l-3.54,3.38c-.37,.42-.56,.9-.56,1.46Zm1.94,27.93c0,.54,.22,1.04,.64,1.49l1.52,1.51c.52,.5,1.01,.73,1.52,.73,.47,0,.96-.24,1.42-.73,.44-.42,.66-.92,.64-1.44-.02-.54-.22-1.02-.64-1.42l-1.6-1.56c-.39-.38-.86-.57-1.4-.57-.59,0-1.08,.19-1.5,.59-.39,.38-.61,.85-.61,1.39Zm3.61-14.9c0,.52,.2,.99,.59,1.37,.39,.38,.88,.57,1.42,.57h5.01c.64,0,1.15-.19,1.55-.54,.39-.38,.59-.83,.59-1.39s-.2-1.09-.61-1.46-.91-.57-1.52-.57h-5.01c-.56,0-1.06,.19-1.45,.59-.37,.4-.56,.9-.56,1.44Z"/></g></svg>