<?xml version="1.0" encoding="utf-8"?>
<!-- Generator: Adobe Illustrator 27.0.1, SVG Export Plug-In . SVG Version: 6.00 Build 0)  -->
<svg version="1.1" id="Layer_2_00000058568497649972768710000009812526521060225967_"
	 xmlns="http://www.w3.org/2000/svg" xmlns:xlink="http://www.w3.org/1999/xlink" x="0px" y="0px" viewBox="0 0 66 63"
	 style="enable-background:new 0 0 66 63;" xml:space="preserve">
<style type="text/css">
	.st0{fill:#97BACE;}
</style>
<g id="Layer_1-2">
	<path id="showers-day" class="st0" d="M0,37.6c0,3.1,1.1,5.8,3.4,8.1c2.3,2.3,5.1,3.5,8.4,3.6c0.3,0,0.4-0.1,0.4-0.4v-3.2
		c0-0.3-0.1-0.4-0.4-0.4c-2.1-0.1-3.8-0.9-5.3-2.4c-1.5-1.5-2.2-3.3-2.2-5.3s0.7-3.7,2.1-5.1c1.4-1.4,3.1-2.3,5.2-2.5l1.2-0.1
		c0.3,0,0.5-0.1,0.5-0.4l0.1-1.2c0.3-2.5,1.4-4.7,3.4-6.4c2-1.7,4.3-2.6,7-2.6s5,0.9,7,2.6s3.1,3.9,3.4,6.4l0.2,1.4
		c0,0.3,0.2,0.4,0.4,0.4h4.1c2.2,0,4,0.8,5.6,2.3s2.4,3.3,2.4,5.4s-0.7,3.8-2.2,5.2c-1.5,1.5-3.2,2.3-5.3,2.5
		c-0.3,0-0.4,0.1-0.4,0.4v3.2c0,0.3,0.2,0.4,0.4,0.4c2.2,0,4.1-0.6,5.9-1.7s3.2-2.5,4.2-4.2c1-1.8,1.5-3.7,1.5-5.8
		c0-1.7-0.3-3.2-1-4.6c1.9-2.2,2.8-4.8,2.8-7.8c0-1.7-0.3-3.3-1-4.8c-0.7-1.5-1.6-2.8-2.8-3.9c-1.1-1.1-2.5-2-4.1-2.6
		c-1.6-0.7-3.3-1-5-1c-3.7,0-6.8,1.3-9.4,3.9c-1.9-1-4.2-1.5-6.7-1.5c-3.5,0-6.5,1-9.2,3.1s-4.3,4.7-5.1,7.9c-2.8,0.6-5,2-6.8,4.1
		C0.9,32.5,0,34.9,0,37.6L0,37.6z M13.3,53.4c0,0.4,0.1,0.8,0.4,1.2c0.3,0.4,0.6,0.7,1.1,0.8c0.5,0.2,1,0.1,1.5-0.1
		c0.5-0.3,0.9-0.7,1.1-1.3l0.6-2.5c0.2-0.5,0.1-1-0.2-1.5c-0.3-0.5-0.7-0.8-1.2-1c-0.6-0.1-1.1-0.1-1.6,0.2
		c-0.5,0.3-0.8,0.7-0.9,1.2l-0.7,2.3C13.3,53.1,13.3,53.2,13.3,53.4L13.3,53.4z M16.5,42.3c0,0.9,0.5,1.5,1.6,1.9
		c0.5,0.2,1.1,0.1,1.6-0.1c0.5-0.3,0.8-0.7,1-1.2l0.6-2.4c0.2-0.5,0.1-1-0.2-1.5c-0.3-0.5-0.7-0.8-1.2-1c-0.6-0.1-1.1-0.1-1.6,0.2
		c-0.5,0.3-0.8,0.7-0.9,1.2l-0.7,2.4C16.5,41.9,16.5,42.1,16.5,42.3L16.5,42.3z M19.5,60.9c0,0.4,0.1,0.8,0.4,1.2s0.7,0.7,1.2,0.8
		c0,0,0.1,0,0.2,0s0.3,0,0.4,0c0.3,0,0.6,0,0.9-0.2c0.5-0.2,0.8-0.6,1-1.4l0.7-2.3c0.2-0.5,0.1-1.1-0.2-1.5
		c-0.3-0.5-0.7-0.8-1.2-0.9c-0.6-0.2-1.1-0.1-1.6,0.2c-0.5,0.3-0.8,0.7-1,1.2l-0.7,2.4C19.5,60.6,19.5,60.8,19.5,60.9L19.5,60.9z
		 M20.6,8.8c0,0.6,0.2,1.1,0.6,1.5l1.6,1.5c0.8,0.8,1.8,0.8,2.9,0c0.4-0.4,0.6-0.9,0.6-1.4s-0.2-1-0.6-1.4l-1.5-1.6
		c-0.4-0.4-0.9-0.6-1.5-0.6S21.7,7,21.2,7.4C20.8,7.8,20.6,8.2,20.6,8.8L20.6,8.8z M22.8,49.6c0,0.4,0.1,0.8,0.4,1.2
		c0.3,0.4,0.6,0.7,1.1,0.8c0.6,0.2,1.1,0.1,1.6-0.1c0.5-0.2,0.8-0.7,1-1.3l0.6-2.4c0.2-0.5,0.1-1.1-0.1-1.5c-0.3-0.5-0.7-0.8-1.2-1
		c-0.6-0.2-1.2-0.1-1.7,0.2s-0.8,0.7-0.9,1.2l-0.7,2.4C22.8,49.3,22.8,49.4,22.8,49.6L22.8,49.6z M29.6,53.7c0,0.9,0.6,1.5,1.5,2
		l0.6,0.1c0.4,0,0.8-0.1,1.1-0.4c0.4-0.3,0.6-0.6,0.8-1.2l0.7-2.4c0.2-0.6,0.1-1.1-0.2-1.6s-0.7-0.8-1.3-0.9c-0.5-0.2-1-0.1-1.5,0.2
		c-0.5,0.3-0.8,0.7-1,1.2l-0.7,2.4c0,0,0,0.1,0,0.2c0,0.1,0,0.1,0,0.2C29.6,53.5,29.6,53.6,29.6,53.7z M33.1,42.4
		c0,0.4,0.1,0.8,0.4,1.1c0.2,0.4,0.6,0.6,1.1,0.8l0.6,0.1c0.5,0,0.9-0.1,1.3-0.4s0.6-0.7,0.7-1.1l0.7-2.3c0.2-0.6,0.1-1.1-0.2-1.5
		c-0.3-0.5-0.7-0.8-1.2-0.9c-0.6-0.2-1.1-0.1-1.6,0.1c-0.5,0.3-0.8,0.7-1,1.2l-0.7,2.5C33.1,42.1,33.1,42.3,33.1,42.4z M33.9,19.1
		c1.6-1.5,3.6-2.3,5.9-2.3s4.5,0.8,6.2,2.5c1.7,1.6,2.5,3.6,2.5,5.9c0,1.3-0.4,2.7-1.2,4.2C45,27.2,42.2,26,38.8,26H38
		C37.4,23.4,36,21.1,33.9,19.1z M37.7,6.8c0,0.6,0.2,1.1,0.6,1.4c0.4,0.4,0.9,0.6,1.5,0.6s1.1-0.2,1.5-0.6c0.4-0.4,0.6-0.9,0.6-1.4
		V2c0-0.6-0.2-1.1-0.6-1.5C40.9,0.2,40.4,0,39.8,0s-1.1,0.2-1.5,0.6c-0.4,0.4-0.6,0.9-0.6,1.5C37.7,2,37.7,6.8,37.7,6.8z M51.3,12.2
		c0,0.6,0.2,1.1,0.6,1.4c0.5,0.4,1,0.6,1.5,0.6c0.5,0,0.9-0.2,1.5-0.6l3.5-3.4c0.4-0.4,0.6-0.9,0.6-1.5s-0.2-1-0.6-1.4
		s-0.9-0.6-1.5-0.6S55.8,7,55.4,7.4l-3.5,3.4C51.5,11.2,51.3,11.6,51.3,12.2L51.3,12.2z M53.2,40.1c0,0.5,0.2,1,0.6,1.5l1.5,1.5
		c0.5,0.5,1,0.7,1.5,0.7c0.5,0,1-0.2,1.4-0.7c0.4-0.4,0.7-0.9,0.6-1.4c0-0.5-0.2-1-0.6-1.4l-1.6-1.6c-0.4-0.4-0.9-0.6-1.4-0.6
		c-0.6,0-1.1,0.2-1.5,0.6C53.5,39.1,53.2,39.6,53.2,40.1L53.2,40.1z M56.9,25.2c0,0.5,0.2,1,0.6,1.4c0.4,0.4,0.9,0.6,1.4,0.6h5
		c0.6,0,1.2-0.2,1.6-0.5c0.4-0.4,0.6-0.8,0.6-1.4s-0.2-1.1-0.6-1.5s-0.9-0.6-1.5-0.6h-5c-0.6,0-1.1,0.2-1.5,0.6
		C57.1,24.2,56.9,24.7,56.9,25.2L56.9,25.2z"/>
</g>
</svg>
