<?xml version="1.0" encoding="UTF-8"?><svg id="Layer_2" xmlns="http://www.w3.org/2000/svg" viewBox="0 0 54 56"><defs><style>.cls-1{fill:#e7f3f6;}</style></defs><g id="Layer_1-2"><path id="showers-night" class="cls-1" d="M0,29c0,3.34,1.14,6.22,3.43,8.61,2.3,2.38,5.09,3.69,8.4,3.84,.27,0,.42-.15,.42-.43v-3.44c0-.3-.15-.45-.42-.45-2.15-.18-3.95-1.03-5.41-2.61-1.46-1.56-2.2-3.41-2.2-5.54s.69-3.86,2.07-5.42c1.38-1.56,3.11-2.43,5.19-2.68l1.31-.18c.32,0,.49-.15,.49-.43l.17-1.3c.27-2.71,1.38-4.99,3.38-6.8,2-1.83,4.35-2.73,7.04-2.73s5.04,.9,7.04,2.73c2,1.81,3.16,4.09,3.43,6.82l.2,1.46c0,.3,.15,.45,.44,.45h3.98c2.22,0,4.12,.8,5.73,2.38,1.58,1.58,2.4,3.49,2.4,5.72s-.74,3.99-2.2,5.54c-1.46,1.56-3.28,2.43-5.41,2.61-.32,0-.49,.15-.49,.45v3.44c0,.28,.17,.43,.49,.43,3.28-.1,6.07-1.38,8.35-3.79,2.27-2.41,3.41-5.29,3.41-8.66,0-2.18-.54-4.22-1.6-6.1,2-1.83,3.31-4.01,3.9-6.57v-.33l.47-1.98-1.88-.53c-2-.6-3.56-1.76-4.67-3.39-1.11-1.66-1.65-3.36-1.65-5.09,0-.65,.07-1.3,.2-1.96l.49-2.01-2.1-.63-.37-.1c-1.16-.23-2.17-.35-3.09-.35s-1.88,.1-2.81,.33c-.96,.23-1.95,.55-2.96,1.03-1.04,.48-2.02,1.13-2.96,2.01-.94,.88-1.78,1.91-2.47,3.09-1.83-.83-3.78-1.23-5.83-1.23-3.48,0-6.57,1.1-9.26,3.29-2.69,2.18-4.37,4.99-5.11,8.43-2.77,.65-5.06,2.08-6.84,4.32-1.8,2.28-2.69,4.87-2.69,7.75Zm13.33,16.99c0,.38,.12,.75,.37,1.13,.25,.38,.62,.65,1.11,.83,.54,.18,1.06,.15,1.58-.13,.52-.28,.84-.7,1.01-1.28l.69-2.66c.17-.53,.12-1.03-.17-1.56-.3-.53-.72-.85-1.26-1.03-.57-.15-1.11-.08-1.61,.2-.49,.28-.84,.75-1.04,1.33l-.57,2.48c-.07,.4-.12,.63-.12,.68Zm3.21-11.87c0,.28,.07,.58,.25,.9,.17,.43,.62,.75,1.31,.95,.59,.15,1.14,.1,1.63-.15,.47-.25,.81-.7,.99-1.3l.69-2.58c.17-.58,.12-1.13-.17-1.61-.3-.5-.72-.83-1.26-.98-.59-.15-1.16-.1-1.65,.18-.49,.28-.81,.7-.99,1.3l-.67,2.53c-.07,.33-.12,.58-.12,.75Zm3.09,19.7c0,.43,.12,.83,.37,1.23s.62,.68,1.11,.83c.27,.08,.44,.13,.57,.13,.22,0,.52-.08,.94-.25,.49-.2,.84-.68,1.06-1.38l.74-2.63c.17-.53,.12-1.05-.17-1.58-.3-.53-.72-.85-1.26-1.03-.59-.15-1.16-.1-1.65,.2-.49,.3-.84,.73-1.01,1.33l-.62,2.53c-.05,.2-.07,.43-.07,.63Zm3.28-11.97c0,.38,.12,.75,.37,1.13,.25,.38,.62,.65,1.14,.83,.54,.18,1.09,.13,1.58-.15,.49-.28,.81-.7,.99-1.3l.67-2.61c.17-.53,.12-1.05-.15-1.56-.27-.5-.67-.85-1.21-1.03-.59-.15-1.16-.08-1.68,.2-.52,.28-.86,.75-1.04,1.33l-.59,2.51-.07,.65Zm6.94,4.42c0,.95,.52,1.56,1.58,1.88,.22,.05,.42,.08,.59,.08,.37,0,.67-.05,.91-.18,.52-.2,.89-.68,1.09-1.43l.67-2.56c.15-.63,.1-1.18-.2-1.68-.3-.5-.72-.8-1.31-.93-.57-.18-1.11-.13-1.58,.18-.47,.3-.81,.73-.99,1.28l-.67,2.61c0,.05-.02,.18-.05,.38-.05,.18-.05,.3-.05,.38Zm3.43-12.07c0,.4,.12,.78,.37,1.15,.25,.38,.64,.65,1.14,.8,.35,.08,.54,.13,.57,.13,.22,0,.52-.08,.94-.25,.52-.2,.86-.68,1.09-1.38l.69-2.61c.15-.55,.07-1.08-.2-1.58-.27-.5-.74-.83-1.31-1-.54-.18-1.06-.13-1.56,.18-.49,.3-.81,.73-.99,1.3l-.64,2.66c-.07,.23-.1,.45-.1,.6Zm.07-25.52c.79-1.41,1.88-2.51,3.28-3.29,1.41-.78,2.89-1.18,4.47-1.18h.52c-.02,.23-.02,.53-.02,.95,0,2.38,.64,4.64,1.93,6.8,1.28,2.16,3.09,3.79,5.36,4.92-.54,1.08-1.19,2.01-1.93,2.76-2.3-2.03-4.99-3.04-8.02-3.04h-.79c-.62-2.99-2.2-5.62-4.79-7.93Z"/></g></svg>