<?xml version="1.0" encoding="utf-8"?>
<!-- Generator: Adobe Illustrator 27.0.1, SVG Export Plug-In . SVG Version: 6.00 Build 0)  -->
<svg version="1.1" id="Layer_2_00000163041008375151027980000014636060743773849522_"
	 xmlns="http://www.w3.org/2000/svg" xmlns:xlink="http://www.w3.org/1999/xlink" x="0px" y="0px" viewBox="0 0 54 56"
	 style="enable-background:new 0 0 54 56;" xml:space="preserve">
<style type="text/css">
	.st0{fill:#E6A339;}
</style>
<g id="Layer_1-2">
	<path id="showers-night" class="st0" d="M0,29c0,3.3,1.1,6.2,3.4,8.6c2.3,2.4,5.1,3.7,8.4,3.8c0.3,0,0.4-0.2,0.4-0.4v-3.4
		c0-0.3-0.1-0.5-0.4-0.5c-2.1-0.2-3.9-1-5.4-2.6C5,33,4.2,31.1,4.2,29s0.7-3.9,2.1-5.4s3.1-2.4,5.2-2.7l1.3-0.2
		c0.3,0,0.5-0.1,0.5-0.4l0.2-1.3c0.3-2.7,1.4-5,3.4-6.8c2-1.8,4.4-2.7,7-2.7s5,0.9,7,2.7c2,1.8,3.2,4.1,3.4,6.8l0.2,1.5
		c0,0.3,0.2,0.5,0.4,0.5h4c2.2,0,4.1,0.8,5.7,2.4c1.6,1.6,2.4,3.5,2.4,5.7s-0.7,4-2.2,5.5c-1.5,1.6-3.3,2.4-5.4,2.6
		c-0.3,0-0.5,0.2-0.5,0.5V41c0,0.3,0.2,0.4,0.5,0.4c3.3-0.1,6.1-1.4,8.4-3.8c2.3-2.4,3.4-5.3,3.4-8.7c0-2.2-0.5-4.2-1.6-6.1
		c2-1.8,3.3-4,3.9-6.6V16l0.5-2l-1.9-0.5c-2-0.6-3.6-1.8-4.7-3.4c-1.1-1.7-1.7-3.4-1.7-5.1c0-0.7,0.1-1.3,0.2-2l0.5-2l-2.1-0.6
		L44,0.3C42.9,0.1,41.9,0,40.9,0s-1.9,0.1-2.8,0.3c-1,0.2-2,0.6-3,1c-1,0.5-2,1.1-3,2c-0.9,0.9-1.8,1.9-2.5,3.1
		c-1.8-0.8-3.8-1.2-5.8-1.2c-3.5,0-6.6,1.1-9.3,3.3c-2.7,2.2-4.4,5-5.1,8.4c-2.8,0.6-5.1,2.1-6.8,4.3C0.9,23.5,0,26.1,0,29L0,29z
		 M13.3,46c0,0.4,0.1,0.8,0.4,1.1s0.6,0.7,1.1,0.8c0.5,0.2,1.1,0.2,1.6-0.1c0.5-0.3,0.8-0.7,1-1.3l0.7-2.7c0.2-0.5,0.1-1-0.2-1.6
		c-0.3-0.5-0.7-0.8-1.3-1c-0.6-0.2-1.1-0.1-1.6,0.2c-0.5,0.3-0.8,0.8-1,1.3l-0.6,2.5C13.4,45.7,13.3,45.9,13.3,46L13.3,46z
		 M16.5,34.1c0,0.3,0.1,0.6,0.2,0.9c0.2,0.4,0.6,0.8,1.3,1c0.6,0.2,1.1,0.1,1.6-0.2c0.5-0.2,0.8-0.7,1-1.3l0.7-2.6
		c0.2-0.6,0.1-1.1-0.2-1.6c-0.3-0.5-0.7-0.8-1.3-1c-0.6-0.1-1.2-0.1-1.6,0.2s-0.8,0.7-1,1.3l-0.7,2.5C16.6,33.7,16.5,33.9,16.5,34.1
		L16.5,34.1z M19.6,53.8c0,0.4,0.1,0.8,0.4,1.2s0.6,0.7,1.1,0.8c0.3,0.1,0.4,0.1,0.6,0.1c0.2,0,0.5-0.1,0.9-0.2
		c0.5-0.2,0.8-0.7,1.1-1.4l0.7-2.6c0.2-0.5,0.1-1-0.2-1.6c-0.3-0.5-0.7-0.8-1.3-1c-0.6-0.2-1.2-0.1-1.6,0.2s-0.8,0.7-1,1.3l-0.6,2.5
		C19.7,53.4,19.6,53.6,19.6,53.8L19.6,53.8z M22.9,41.8c0,0.4,0.1,0.8,0.4,1.1s0.6,0.7,1.1,0.8c0.5,0.2,1.1,0.1,1.6-0.2
		c0.5-0.3,0.8-0.7,1-1.3l0.7-2.6c0.2-0.5,0.1-1-0.1-1.6c-0.3-0.5-0.7-0.8-1.2-1c-0.6-0.2-1.2-0.1-1.7,0.2c-0.5,0.3-0.9,0.8-1,1.3
		L23,41.2L22.9,41.8L22.9,41.8z M29.9,46.3c0,1,0.5,1.6,1.6,1.9c0.2,0,0.4,0.1,0.6,0.1c0.4,0,0.7,0,0.9-0.2c0.5-0.2,0.9-0.7,1.1-1.4
		l0.7-2.6c0.2-0.6,0.1-1.2-0.2-1.7s-0.7-0.8-1.3-0.9c-0.6-0.2-1.1-0.1-1.6,0.2c-0.5,0.3-0.8,0.7-1,1.3l-0.7,2.6c0,0,0,0.2,0,0.4
		C29.8,46.1,29.8,46.2,29.9,46.3L29.9,46.3z M33.3,34.2c0,0.4,0.1,0.8,0.4,1.2c0.2,0.4,0.6,0.7,1.1,0.8c0.3,0.1,0.5,0.1,0.6,0.1
		c0.2,0,0.5-0.1,0.9-0.2c0.5-0.2,0.9-0.7,1.1-1.4l0.7-2.6c0.2-0.5,0.1-1.1-0.2-1.6s-0.7-0.8-1.3-1c-0.5-0.2-1.1-0.1-1.6,0.2
		c-0.5,0.3-0.8,0.7-1,1.3l-0.6,2.7C33.3,33.8,33.3,34,33.3,34.2z M33.4,8.7c0.8-1.4,1.9-2.5,3.3-3.3c1.4-0.8,2.9-1.2,4.5-1.2h0.5
		c0,0.2,0,0.5,0,0.9c0,2.4,0.6,4.6,1.9,6.8c1.3,2.2,3.1,3.8,5.4,4.9c-0.5,1.1-1.2,2-1.9,2.8c-2.3-2-5-3-8-3h-0.8
		C37.5,13.6,36,11,33.4,8.7L33.4,8.7z"/>
</g>
</svg>
