<?xml version="1.0" encoding="utf-8"?>
<!-- Generator: Adobe Illustrator 27.0.1, SVG Export Plug-In . SVG Version: 6.00 Build 0)  -->
<svg version="1.1" id="Layer_2_00000054247459202710624220000006386900900175955857_"
	 xmlns="http://www.w3.org/2000/svg" xmlns:xlink="http://www.w3.org/1999/xlink" x="0px" y="0px" viewBox="0 0 53 54"
	 style="enable-background:new 0 0 53 54;" xml:space="preserve">
<style type="text/css">
	.st0{fill:#5D6D92;}
</style>
<g id="Layer_1-2">
	<path id="snow-night" class="st0" d="M0,28.3c0,3.2,1.1,6,3.4,8.4s5,3.6,8.2,3.7c0.3,0,0.4-0.2,0.4-0.4v-3.3c0-0.3-0.1-0.4-0.4-0.4
		c-2.1-0.1-3.8-1-5.3-2.5c-1.5-1.6-2.2-3.4-2.2-5.5s0.7-3.9,2.1-5.4s3.1-2.3,5.1-2.5l1.3-0.2c0.3,0,0.5-0.1,0.5-0.4l0.2-1.3
		c0.3-2.7,1.4-4.9,3.3-6.7c2-1.8,4.3-2.7,6.9-2.7s4.9,0.9,6.9,2.7c2,1.8,3.1,4,3.4,6.6l0.2,1.4c0,0.3,0.2,0.4,0.4,0.4h3.9
		c2.2,0,4.1,0.8,5.7,2.4c1.6,1.6,2.3,3.4,2.3,5.6c0,2.1-0.7,3.9-2.2,5.5s-3.2,2.4-5.3,2.5c-0.3,0-0.5,0.2-0.5,0.4V40
		c0,0.3,0.2,0.4,0.5,0.4c2.1,0,4.1-0.6,5.8-1.7s3.2-2.6,4.2-4.4c1-1.8,1.5-3.8,1.5-5.9s-0.5-4.2-1.6-6c1.8-1.6,3-3.7,3.7-6.3
		l0.4-1.8c0,0,0-0.1,0-0.2c0-0.2-0.1-0.3-0.4-0.4l-1.5-0.4c-1.1-0.3-2-0.8-2.8-1.4c-0.8-0.6-1.5-1.3-2-2.1s-0.8-1.5-1.1-2.3
		c-0.2-0.8-0.4-1.6-0.4-2.3c0-0.7,0.1-1.4,0.2-2.1l0.3-1.5c0-0.2,0-0.4-0.3-0.5l-1.9-0.6C42,0.1,41,0,40,0c-0.9,0-1.8,0.1-2.7,0.3
		c-0.9,0.2-1.9,0.5-2.9,1s-1.9,1.1-2.9,2s-1.7,1.8-2.4,3c-2-0.8-3.9-1.2-5.8-1.2C20,5,17,6.1,14.3,8.3c-2.6,2.1-4.4,4.9-5.1,8.2
		c-2.7,0.7-4.9,2.1-6.7,4.3C0.8,23-0.1,25.5,0,28.3L0,28.3z M15.5,38.3c0,0.6,0.2,1.1,0.6,1.5c0.4,0.4,0.9,0.6,1.4,0.6
		s1.1-0.2,1.5-0.6c0.4-0.4,0.6-0.9,0.6-1.5s-0.2-1-0.6-1.4s-0.9-0.6-1.5-0.6s-1,0.2-1.4,0.6C15.7,37.3,15.5,37.7,15.5,38.3z
		 M15.5,47.2c0,0.6,0.2,1,0.6,1.4c0.4,0.4,0.9,0.6,1.4,0.6c0.6,0,1.1-0.2,1.5-0.6c0.4-0.4,0.6-0.8,0.6-1.4s-0.2-1-0.6-1.4
		s-0.9-0.6-1.5-0.6s-1,0.2-1.4,0.6C15.7,46.1,15.5,46.6,15.5,47.2L15.5,47.2z M23.2,43c0,0.6,0.2,1.1,0.6,1.4
		c0.4,0.4,0.9,0.6,1.4,0.6c0.6,0,1.1-0.2,1.5-0.6s0.6-0.9,0.6-1.4s-0.2-1.1-0.6-1.5c-0.4-0.4-0.9-0.6-1.5-0.6c-0.5,0-1,0.2-1.4,0.6
		C23.4,42,23.2,42.4,23.2,43z M23.2,34.1c0,0.6,0.2,1,0.6,1.4c0.4,0.4,0.9,0.6,1.4,0.6c0.6,0,1.1-0.2,1.5-0.6
		c0.4-0.4,0.6-0.8,0.6-1.4s-0.2-1-0.6-1.5c-0.4-0.4-0.9-0.6-1.5-0.6c-0.5,0-1,0.2-1.4,0.6C23.4,33.1,23.2,33.6,23.2,34.1L23.2,34.1z
		 M23.2,52c0,0.5,0.2,1,0.6,1.4c0.4,0.4,0.9,0.6,1.4,0.6c0.6,0,1.1-0.2,1.5-0.6s0.6-0.8,0.6-1.4s-0.2-1.1-0.6-1.5
		c-0.4-0.4-0.9-0.6-1.5-0.6c-0.5,0-1,0.2-1.4,0.6C23.5,50.9,23.2,51.4,23.2,52L23.2,52z M31.1,38.3c0,0.6,0.2,1.1,0.6,1.5
		c0.4,0.4,0.9,0.6,1.5,0.6s1-0.2,1.4-0.6c0.4-0.4,0.6-0.9,0.6-1.5s-0.2-1-0.6-1.4c-0.4-0.4-0.8-0.6-1.4-0.6s-1,0.2-1.5,0.6
		S31.1,37.7,31.1,38.3z M31.1,47.2c0,0.6,0.2,1,0.6,1.4c0.4,0.4,0.9,0.6,1.4,0.6s1-0.2,1.4-0.6s0.6-0.8,0.6-1.4s-0.2-1-0.6-1.4
		c-0.4-0.4-0.8-0.6-1.4-0.6s-1.1,0.2-1.5,0.6C31.3,46.1,31.1,46.6,31.1,47.2z M32.8,8.4c0.8-1.3,1.8-2.3,3.2-3.1s2.7-1.1,4.2-1.1
		c0.4,0,0.6,0,0.8,0.1V5c0,2.4,0.6,4.6,1.9,6.7s3,3.7,5.3,4.8c-0.4,0.9-1,1.8-1.8,2.6c-2.2-1.9-4.8-2.9-7.8-2.9h-0.8
		C36.9,13.2,35.3,10.6,32.8,8.4L32.8,8.4z"/>
</g>
</svg>
