<?xml version="1.0" encoding="UTF-8"?><svg id="Layer_2" xmlns="http://www.w3.org/2000/svg" viewBox="0 0 66 64"><g id="Layer_1-2"><path fill="#97bace" id="snow-day" class="cls-1" d="M0,38.71c0,2.08,.52,4.04,1.57,5.83,1.03,1.79,2.46,3.24,4.28,4.33,1.8,1.09,3.79,1.67,5.9,1.72,.27,0,.42-.15,.42-.41v-3.22c0-.29-.15-.46-.42-.46-2.09-.1-3.89-.92-5.36-2.47-1.48-1.55-2.21-3.32-2.21-5.35s.69-3.73,2.09-5.23c1.4-1.48,3.1-2.35,5.16-2.59l1.3-.15c.3,0,.44-.15,.44-.46l.2-1.23c.27-2.64,1.38-4.84,3.34-6.61,1.97-1.77,4.3-2.64,7.01-2.64s5.02,.87,7.01,2.64c2.02,1.77,3.15,3.95,3.39,6.54l.17,1.4c0,.27,.15,.41,.42,.41h3.96c2.21,0,4.11,.77,5.68,2.32,1.57,1.55,2.36,3.39,2.36,5.54,0,2.03-.74,3.8-2.21,5.35-1.48,1.53-3.27,2.35-5.34,2.47-.3,0-.47,.15-.47,.46v3.22c0,.27,.15,.41,.47,.41,3.27-.1,6.02-1.31,8.31-3.63,2.29-2.32,3.42-5.06,3.42-8.25,0-1.84-.34-3.46-1.06-4.91,1.84-2.25,2.83-4.91,2.83-7.94,0-2.28-.57-4.38-1.72-6.32-1.16-1.94-2.73-3.49-4.7-4.62-1.97-1.14-4.13-1.69-6.44-1.69-3.79,0-6.96,1.4-9.52,4.19-1.99-1.06-4.2-1.6-6.61-1.6-3.47,0-6.52,1.07-9.2,3.17-2.68,2.11-4.38,4.82-5.14,8.08-2.75,.68-4.99,2.08-6.74,4.24-1.75,2.18-2.61,4.65-2.61,7.46Zm15.59,9.8c0,.58,.2,1.07,.59,1.48,.39,.41,.86,.61,1.45,.61s1.06-.19,1.45-.61c.39-.41,.59-.9,.59-1.48s-.2-1.02-.59-1.4c-.39-.39-.86-.58-1.45-.58s-1.06,.19-1.45,.58c-.39,.39-.59,.87-.59,1.4Zm0,8.79c0,.51,.2,.97,.59,1.38,.44,.39,.91,.58,1.43,.58,.59,0,1.06-.19,1.45-.56,.39-.39,.57-.85,.57-1.4s-.2-1.04-.59-1.43c-.39-.39-.86-.56-1.45-.56s-1.06,.19-1.45,.56c-.34,.36-.54,.85-.54,1.43ZM20.63,9.05c0,.58,.2,1.07,.59,1.43l1.62,1.6c.39,.39,.84,.61,1.3,.61,.52,.07,1.01-.1,1.5-.53,.49-.44,.74-.94,.74-1.53s-.2-1.11-.59-1.55l-1.57-1.48c-.37-.41-.84-.61-1.43-.61s-1.13,.19-1.55,.61c-.42,.39-.61,.87-.61,1.45Zm2.78,44.1c0,.53,.2,1.02,.59,1.45,.39,.39,.89,.58,1.43,.58,.59,0,1.08-.19,1.48-.58,.39-.39,.61-.87,.61-1.45s-.2-1.04-.61-1.45c-.42-.41-.91-.61-1.48-.61s-1.03,.19-1.43,.61c-.39,.41-.59,.9-.59,1.45Zm0-8.71c0,.56,.2,1.02,.59,1.4,.39,.39,.89,.58,1.43,.58,.59,0,1.08-.19,1.48-.58,.42-.39,.61-.85,.61-1.43s-.2-1.04-.61-1.43c-.42-.39-.91-.58-1.48-.58s-1.03,.19-1.43,.58c-.39,.39-.59,.9-.59,1.45Zm0,17.57c0,.53,.2,.99,.59,1.38,.42,.41,.89,.61,1.43,.61,.59,0,1.08-.19,1.48-.56,.42-.39,.61-.85,.61-1.43s-.2-1.06-.61-1.45c-.42-.41-.91-.61-1.48-.61s-1.01,.19-1.43,.61c-.39,.41-.59,.9-.59,1.45Zm7.92-13.51c0,.58,.2,1.07,.59,1.48,.39,.41,.89,.61,1.45,.61s1.06-.19,1.45-.61c.39-.41,.59-.9,.59-1.48s-.2-1.02-.59-1.4c-.39-.39-.86-.58-1.45-.58s-1.06,.19-1.45,.58c-.39,.39-.59,.87-.59,1.4Zm0,8.79c0,.51,.2,.97,.57,1.38,.44,.39,.93,.58,1.48,.58,.59,0,1.06-.19,1.45-.56,.39-.39,.57-.85,.57-1.4s-.2-1.04-.59-1.43c-.39-.39-.86-.56-1.45-.56s-1.08,.19-1.48,.58c-.34,.36-.54,.85-.54,1.4Zm2.41-37.64c1.7-1.6,3.71-2.4,6.07-2.4s4.43,.85,6.1,2.52c1.7,1.67,2.53,3.7,2.53,6.03,0,1.5-.42,3-1.25,4.45-2.34-2.32-5.19-3.49-8.53-3.49h-.79c-.74-2.83-2.11-5.2-4.13-7.12Zm3.93-12.64c0,.56,.2,1.04,.61,1.4,.42,.36,.91,.56,1.5,.56s1.06-.19,1.45-.56c.39-.39,.57-.85,.57-1.4V2.08c0-.58-.2-1.07-.59-1.48-.39-.41-.84-.61-1.4-.61s-1.06,.22-1.48,.63c-.42,.41-.64,.9-.64,1.45V7.02h-.02Zm13.57,5.49c0,.56,.2,1.04,.61,1.43,.37,.39,.84,.58,1.38,.63,.54,.05,1.06-.17,1.52-.63l3.52-3.46c.44-.44,.64-.92,.64-1.48s-.22-1.07-.64-1.48c-.42-.41-.91-.61-1.48-.61s-1.01,.19-1.43,.61l-3.52,3.53c-.42,.39-.61,.87-.61,1.45Zm1.97,28.56c0,.61,.2,1.11,.59,1.5l1.57,1.53c.59,.39,1.13,.58,1.57,.58,.52,0,.96-.22,1.38-.63,.42-.41,.61-.92,.61-1.48s-.22-1.02-.64-1.4l-1.52-1.57c-.44-.39-.93-.58-1.5-.58s-1.06,.19-1.45,.61c-.42,.39-.61,.87-.61,1.45Zm3.57-15.27c0,.58,.22,1.04,.64,1.43,.42,.44,.93,.65,1.52,.65h4.97c.57,0,1.06-.19,1.48-.61,.42-.41,.61-.9,.61-1.48s-.2-1.07-.61-1.45c-.42-.39-.91-.61-1.48-.61h-4.97c-.59,0-1.08,.19-1.52,.61-.44,.41-.64,.9-.64,1.45Z"/></g></svg>