<?xml version="1.0" encoding="utf-8"?>
<!-- Generator: Adobe Illustrator 27.0.1, SVG Export Plug-In . SVG Version: 6.00 Build 0)  -->
<svg version="1.1" id="Layer_2_00000014597405115630527650000002451265151113926542_"
	 xmlns="http://www.w3.org/2000/svg" xmlns:xlink="http://www.w3.org/1999/xlink" x="0px" y="0px" viewBox="0 0 66 64"
	 style="enable-background:new 0 0 66 64;" xml:space="preserve">
<style type="text/css">
	.st0{fill:#B3BFD2;}
</style>
<g id="Layer_1-2">
	<path id="snow-day" class="st0" d="M0,38.7c0,2.1,0.5,4,1.6,5.8c1,1.8,2.5,3.2,4.3,4.3c1.8,1.1,3.8,1.7,5.9,1.7
		c0.3,0,0.4-0.2,0.4-0.4V47c0-0.3-0.1-0.5-0.4-0.5c-2.1-0.1-3.9-0.9-5.4-2.5c-1.5-1.5-2.2-3.3-2.2-5.3s0.7-3.7,2.1-5.2
		c1.4-1.5,3.1-2.4,5.2-2.6l1.3-0.1c0.3,0,0.4-0.1,0.4-0.5l0.2-1.2c0.3-2.6,1.4-4.8,3.3-6.6c2-1.8,4.3-2.6,7-2.6s5,0.9,7,2.6
		c2,1.8,3.2,4,3.4,6.5l0.2,1.4c0,0.3,0.2,0.4,0.4,0.4h4c2.2,0,4.1,0.8,5.7,2.3c1.6,1.5,2.4,3.4,2.4,5.5c0,2-0.7,3.8-2.2,5.3
		c-1.5,1.5-3.3,2.3-5.3,2.5c-0.3,0-0.5,0.2-0.5,0.5v3.2c0,0.3,0.2,0.4,0.5,0.4c3.3-0.1,6-1.3,8.3-3.6s3.4-5.1,3.4-8.2
		c0-1.8-0.3-3.5-1.1-4.9c1.8-2.2,2.8-4.9,2.8-7.9c0-2.3-0.6-4.4-1.7-6.3c-1.2-1.9-2.7-3.5-4.7-4.6c-2-1.1-4.1-1.7-6.4-1.7
		c-3.8,0-7,1.4-9.5,4.2c-2-1.1-4.2-1.6-6.6-1.6c-3.5,0-6.5,1.1-9.2,3.2c-2.7,2.1-4.4,4.8-5.1,8.1c-2.8,0.7-5,2.1-6.7,4.2
		C0.8,33.4,0,35.9,0,38.7L0,38.7z M15.6,48.5c0,0.6,0.2,1.1,0.6,1.5c0.4,0.4,0.9,0.6,1.5,0.6s1.1-0.2,1.5-0.6
		c0.4-0.4,0.6-0.9,0.6-1.5s-0.2-1-0.6-1.4c-0.4-0.4-0.9-0.6-1.5-0.6s-1.1,0.2-1.5,0.6C15.8,47.5,15.6,48,15.6,48.5z M15.6,57.3
		c0,0.5,0.2,1,0.6,1.4c0.4,0.4,0.9,0.6,1.4,0.6c0.6,0,1.1-0.2,1.5-0.6c0.4-0.4,0.6-0.8,0.6-1.4s-0.2-1-0.6-1.4s-0.9-0.6-1.5-0.6
		s-1.1,0.2-1.5,0.6C15.8,56.2,15.6,56.7,15.6,57.3L15.6,57.3z M20.6,9c0,0.6,0.2,1.1,0.6,1.4l1.6,1.6c0.4,0.4,0.8,0.6,1.3,0.6
		c0.5,0.1,1-0.1,1.5-0.5c0.5-0.4,0.7-0.9,0.7-1.5s-0.2-1.1-0.6-1.6l-1.6-1.5C23.8,7.2,23.4,7,22.8,7s-1.1,0.2-1.5,0.6
		C20.8,8,20.6,8.5,20.6,9z M23.4,53.1c0,0.5,0.2,1,0.6,1.5c0.4,0.4,0.9,0.6,1.4,0.6c0.6,0,1.1-0.2,1.5-0.6c0.4-0.4,0.6-0.9,0.6-1.5
		s-0.2-1-0.6-1.5c-0.4-0.4-0.9-0.6-1.5-0.6s-1,0.2-1.4,0.6C23.6,52.1,23.4,52.6,23.4,53.1z M23.4,44.4c0,0.6,0.2,1,0.6,1.4
		c0.4,0.4,0.9,0.6,1.4,0.6c0.6,0,1.1-0.2,1.5-0.6c0.4-0.4,0.6-0.8,0.6-1.4s-0.2-1-0.6-1.4c-0.4-0.4-0.9-0.6-1.5-0.6s-1,0.2-1.4,0.6
		C23.6,43.4,23.4,43.9,23.4,44.4L23.4,44.4z M23.4,62c0,0.5,0.2,1,0.6,1.4c0.4,0.4,0.9,0.6,1.4,0.6c0.6,0,1.1-0.2,1.5-0.6
		c0.4-0.4,0.6-0.8,0.6-1.4s-0.2-1.1-0.6-1.5c-0.4-0.4-0.9-0.6-1.5-0.6s-1,0.2-1.4,0.6C23.6,61,23.4,61.5,23.4,62z M31.3,48.5
		c0,0.6,0.2,1.1,0.6,1.5c0.4,0.4,0.9,0.6,1.4,0.6s1.1-0.2,1.5-0.6c0.4-0.4,0.6-0.9,0.6-1.5s-0.2-1-0.6-1.4c-0.4-0.4-0.9-0.6-1.5-0.6
		s-1.1,0.2-1.5,0.6C31.5,47.5,31.3,48,31.3,48.5z M31.3,57.3c0,0.5,0.2,1,0.6,1.4c0.4,0.4,0.9,0.6,1.5,0.6c0.6,0,1.1-0.2,1.5-0.6
		c0.4-0.4,0.6-0.8,0.6-1.4s-0.2-1-0.6-1.4s-0.9-0.6-1.5-0.6s-1.1,0.2-1.5,0.6C31.5,56.2,31.3,56.7,31.3,57.3L31.3,57.3z M33.7,19.6
		c1.7-1.6,3.7-2.4,6.1-2.4s4.4,0.9,6.1,2.5c1.7,1.7,2.5,3.7,2.5,6c0,1.5-0.4,3-1.2,4.5c-2.3-2.3-5.2-3.5-8.5-3.5h-0.8
		C37.1,23.9,35.8,21.6,33.7,19.6L33.7,19.6z M37.7,7c0,0.6,0.2,1,0.6,1.4C38.7,8.8,39.2,9,39.8,9s1.1-0.2,1.5-0.6
		C41.6,8,41.8,7.6,41.8,7V2.1c0-0.6-0.2-1.1-0.6-1.5S40.4,0,39.8,0s-1.1,0.2-1.5,0.6s-0.6,0.9-0.6,1.5L37.7,7L37.7,7L37.7,7z
		 M51.2,12.5c0,0.6,0.2,1,0.6,1.4c0.4,0.4,0.8,0.6,1.4,0.6s1.1-0.2,1.5-0.6l3.5-3.5c0.4-0.4,0.6-0.9,0.6-1.5s-0.2-1.1-0.6-1.5
		s-0.9-0.6-1.5-0.6s-1,0.2-1.4,0.6L51.8,11C51.4,11.4,51.2,11.9,51.2,12.5L51.2,12.5z M53.2,41.1c0,0.6,0.2,1.1,0.6,1.5l1.6,1.5
		c0.6,0.4,1.1,0.6,1.6,0.6c0.5,0,1-0.2,1.4-0.6c0.4-0.4,0.6-0.9,0.6-1.5s-0.2-1-0.6-1.4l-1.5-1.6c-0.4-0.4-0.9-0.6-1.5-0.6
		s-1.1,0.2-1.5,0.6C53.4,40,53.2,40.5,53.2,41.1L53.2,41.1z M56.8,25.8c0,0.6,0.2,1,0.6,1.4c0.4,0.4,0.9,0.6,1.5,0.6h5
		c0.6,0,1.1-0.2,1.5-0.6c0.4-0.4,0.6-0.9,0.6-1.5s-0.2-1.1-0.6-1.5c-0.4-0.4-0.9-0.6-1.5-0.6h-5c-0.6,0-1.1,0.2-1.5,0.6
		C57,24.7,56.8,25.2,56.8,25.8L56.8,25.8z"/>
</g>
</svg>
