<?xml version="1.0" encoding="UTF-8"?><svg id="Layer_2" xmlns="http://www.w3.org/2000/svg" viewBox="0 0 53 54"><g id="Layer_1-2"><path fill="#e7f3f6" id="snow-night" class="cls-1" d="M0,28.32c0,3.25,1.14,6.03,3.39,8.37,2.25,2.34,5.02,3.59,8.24,3.69,.29,0,.44-.15,.44-.42v-3.27c0-.27-.15-.42-.44-.42-2.06-.1-3.83-.95-5.29-2.51-1.48-1.56-2.21-3.39-2.21-5.47s.68-3.86,2.06-5.37c1.38-1.51,3.08-2.34,5.09-2.51l1.28-.17c.32,0,.48-.15,.48-.42l.17-1.27c.27-2.66,1.36-4.91,3.32-6.71,1.96-1.81,4.27-2.71,6.93-2.71s4.95,.9,6.93,2.69c1.99,1.78,3.1,4,3.39,6.64l.19,1.39c0,.29,.15,.44,.41,.44h3.93c2.21,0,4.07,.78,5.65,2.37,1.58,1.56,2.35,3.44,2.35,5.64,0,2.08-.73,3.91-2.21,5.47s-3.22,2.39-5.29,2.51c-.34,0-.51,.15-.51,.42v3.27c0,.27,.17,.42,.51,.42,2.13-.05,4.07-.63,5.84-1.73,1.77-1.1,3.18-2.56,4.19-4.39,1.02-1.83,1.53-3.81,1.53-5.93s-.53-4.25-1.58-6.05c1.79-1.61,3.01-3.71,3.69-6.3l.41-1.76s.05-.1,.05-.2c0-.17-.12-.32-.39-.39l-1.48-.41c-1.07-.32-2.01-.78-2.84-1.39-.82-.61-1.48-1.29-1.96-2.05-.48-.76-.82-1.51-1.07-2.32-.24-.78-.36-1.56-.36-2.32,0-.66,.07-1.37,.24-2.1l.27-1.51c.05-.22-.05-.42-.34-.54l-1.94-.59c-1.07-.27-2.06-.39-3.03-.39-.9,0-1.79,.1-2.72,.32-.92,.22-1.87,.54-2.86,1-.99,.46-1.94,1.1-2.86,1.95s-1.72,1.83-2.4,2.98c-1.96-.81-3.88-1.22-5.77-1.22-3.42,0-6.47,1.07-9.12,3.22-2.64,2.15-4.36,4.88-5.12,8.23-2.72,.68-4.95,2.12-6.67,4.3-1.72,2.2-2.59,4.71-2.59,7.54Zm15.49,9.98c0,.59,.19,1.07,.58,1.46,.39,.41,.85,.61,1.43,.61s1.07-.2,1.45-.61c.39-.42,.58-.9,.58-1.46s-.19-1.03-.58-1.42c-.39-.39-.87-.59-1.45-.59s-1.04,.2-1.43,.59c-.39,.39-.58,.85-.58,1.42Zm0,8.89c0,.56,.19,1.03,.58,1.42,.39,.39,.87,.59,1.41,.59,.58,0,1.07-.2,1.45-.56,.39-.39,.58-.85,.58-1.44s-.19-1.05-.58-1.44c-.39-.39-.87-.56-1.45-.56s-1.04,.2-1.43,.56c-.36,.37-.56,.85-.56,1.44Zm7.76-4.15c0,.59,.19,1.07,.58,1.44,.39,.39,.87,.59,1.41,.59,.58,0,1.07-.2,1.48-.59,.41-.39,.61-.88,.61-1.44s-.19-1.07-.61-1.49c-.41-.42-.9-.63-1.48-.63-.53,0-.99,.22-1.41,.63-.41,.41-.58,.9-.58,1.49Zm0-8.89c0,.59,.19,1.05,.58,1.42,.39,.39,.87,.59,1.41,.59,.58,0,1.09-.2,1.48-.56,.39-.37,.61-.85,.61-1.44s-.19-1.05-.61-1.46c-.41-.41-.9-.61-1.48-.61-.53,0-1.02,.2-1.41,.61-.39,.42-.58,.9-.58,1.46Zm0,17.85c0,.54,.19,1,.58,1.39,.41,.41,.87,.61,1.41,.61,.58,0,1.07-.2,1.48-.59,.41-.39,.61-.85,.61-1.44s-.19-1.07-.61-1.49c-.41-.42-.9-.63-1.48-.63-.53,0-.99,.22-1.41,.63-.36,.44-.58,.95-.58,1.51Zm7.86-13.7c0,.59,.19,1.07,.61,1.46,.41,.39,.87,.61,1.45,.61s1.04-.2,1.43-.61c.39-.42,.58-.9,.58-1.46s-.19-1.03-.58-1.42c-.39-.39-.85-.59-1.43-.59s-1.04,.2-1.45,.59c-.41,.39-.61,.85-.61,1.42Zm0,8.89c0,.56,.19,1.03,.58,1.42,.39,.39,.87,.59,1.45,.59s1.04-.2,1.43-.59c.39-.39,.56-.85,.56-1.44s-.19-1.05-.56-1.44c-.39-.39-.85-.56-1.43-.56s-1.07,.2-1.45,.56c-.39,.39-.58,.88-.58,1.46Zm1.65-38.79c.75-1.32,1.82-2.34,3.15-3.08s2.72-1.1,4.15-1.12c.36,0,.63,.02,.8,.05v.76c0,2.37,.63,4.59,1.89,6.69,1.26,2.1,3.03,3.69,5.26,4.78-.39,.88-.99,1.76-1.84,2.61-2.16-1.93-4.75-2.88-7.83-2.88h-.75c-.65-3-2.25-5.59-4.82-7.81Z"/></g></svg>