<?xml version="1.0" encoding="UTF-8"?><svg id="Layer_2" xmlns="http://www.w3.org/2000/svg" viewBox="0 0 51 51"><g id="Layer_1-2"><path fill="#fffefa" id="thunder-day" class="cls-1" d="M0,25.14c0,2.65,.79,5.04,2.36,7.12,1.57,2.08,3.62,3.49,6.1,4.18l-1.52,4.02c-.12,.33,0,.53,.33,.53h5.05l-2.48,10.01h.67l9.45-13.43c.1-.1,.1-.22,.02-.33-.07-.12-.19-.17-.36-.17h-5.17l5.88-11.02c.17-.33,.05-.53-.33-.53h-7c-.21,0-.38,.12-.55,.33l-2.55,6.86c-1.69-.41-3.1-1.34-4.21-2.72-1.12-1.39-1.67-3.01-1.67-4.83,0-1.98,.67-3.7,2-5.16,1.33-1.46,3-2.29,5-2.53l1.26-.1c.29,0,.43-.14,.43-.43l.17-1.27c.17-1.7,.71-3.23,1.64-4.64,.93-1.39,2.14-2.49,3.62-3.27,1.48-.79,3.07-1.19,4.79-1.19,2.57,0,4.83,.88,6.76,2.63,1.93,1.74,3.02,3.9,3.31,6.48l.19,1.34c0,.29,.14,.45,.4,.45h3.86c2.12,0,3.93,.76,5.48,2.29,1.55,1.53,2.31,3.32,2.31,5.43s-.71,3.85-2.14,5.38c-1.43,1.53-3.17,2.32-5.19,2.44-.31,0-.48,.14-.48,.43v3.2c0,.26,.17,.41,.48,.41,2.07-.05,3.98-.62,5.71-1.72,1.74-1.08,3.12-2.51,4.1-4.3,.98-1.79,1.5-3.73,1.5-5.81,0-1.74-.33-3.35-1-4.8,1.86-2.22,2.79-4.85,2.79-7.91,0-1.7-.33-3.3-1-4.83-.67-1.53-1.55-2.87-2.67-3.99-1.12-1.12-2.43-2.01-3.98-2.68-1.52-.67-3.14-1-4.81-1-3.67,0-6.74,1.39-9.19,4.13-1.93-1.03-4.07-1.55-6.43-1.55-3.36,0-6.33,1.05-8.93,3.13-2.6,2.08-4.26,4.76-5,8.01-2.62,.62-4.79,1.98-6.5,4.13-1.71,2.15-2.5,4.54-2.5,7.29Zm18.88,23.61c0,.38,.12,.76,.36,1.1,.24,.33,.6,.6,1.07,.74l.6,.07c1,0,1.62-.48,1.9-1.43l5.79-21.25c.14-.55,.1-1.08-.17-1.53-.26-.48-.64-.79-1.17-.96-.55-.17-1.07-.12-1.55,.14s-.81,.67-.95,1.19l-5.83,21.27c-.02,.41-.05,.62-.05,.65Zm9.86-7.24c0,.96,.5,1.6,1.48,1.91,.4,.05,.62,.07,.62,.07,.26,0,.55-.05,.83-.19,.48-.22,.81-.65,1-1.31l3.9-13.98c.14-.55,.1-1.08-.19-1.53-.26-.48-.67-.79-1.21-.96-.55-.17-1.07-.12-1.55,.14-.48,.26-.79,.67-.93,1.19l-3.86,14.08c-.05,.33-.1,.53-.1,.57Zm3.98-35.13c1.62-1.53,3.57-2.29,5.9-2.29s4.29,.81,5.9,2.44c1.64,1.63,2.45,3.61,2.45,5.93,0,1.51-.4,2.99-1.21,4.42-2.29-2.29-5.05-3.44-8.29-3.44h-.76c-.67-2.75-2-5.09-4-7.05Z"/></g></svg>