<?xml version="1.0" encoding="UTF-8"?><svg id="Layer_2" xmlns="http://www.w3.org/2000/svg" viewBox="0 0 54 54"><defs><style>.cls-1{fill:#e7f3f6;}</style></defs><g id="Layer_1-2"><path id="thunder-night" class="cls-1" d="M0,28.19c0,2.7,.82,5.11,2.45,7.25,1.63,2.14,3.76,3.58,6.38,4.35l-1.63,4.11c-.07,.34,.05,.51,.37,.51h5.25l-2.4,8.54h.72l9.68-12.02c.1-.12,.1-.24,.02-.36-.07-.12-.2-.17-.37-.17h-5.39l6.14-11.26c.17-.34,.07-.54-.32-.54h-7.33c-.22,0-.4,.12-.57,.34l-2.65,7.01c-1.78-.44-3.24-1.39-4.41-2.85-1.16-1.46-1.73-3.09-1.73-4.89,0-2.02,.69-3.77,2.1-5.28,1.41-1.51,3.14-2.36,5.2-2.6l1.29-.19c.32,0,.49-.15,.49-.41l.17-1.26c.27-2.63,1.39-4.84,3.39-6.62,2-1.78,4.36-2.68,7.05-2.68s5.02,.9,7.05,2.68c2.03,1.78,3.19,3.99,3.49,6.59l.17,1.44c0,.27,.15,.41,.45,.41h4.01c2.25,0,4.16,.78,5.77,2.31s2.4,3.41,2.4,5.57-.74,3.87-2.23,5.38c-1.48,1.51-3.29,2.36-5.44,2.53-.3,0-.47,.15-.47,.41v3.36c0,.29,.15,.44,.47,.44,2.18-.07,4.16-.66,5.96-1.75,1.81-1.09,3.24-2.55,4.28-4.38,1.04-1.82,1.56-3.82,1.56-5.96s-.54-4.09-1.63-5.96c1.95-1.85,3.24-3.96,3.86-6.37l.35-1.75s.05-.1,.05-.17c0-.17-.12-.29-.4-.36l-1.39-.44c-1.41-.39-2.62-1.07-3.61-1.99-1.01-.92-1.73-1.95-2.15-2.99-.42-1.07-.64-2.14-.64-3.21,0-.63,.07-1.29,.2-1.95l.35-1.48c.1-.24,0-.44-.35-.56-.52-.22-1.26-.41-2.23-.63-.97-.22-1.91-.32-2.85-.32-.89,0-1.81,.1-2.77,.32-.94,.22-1.93,.54-2.94,1-1.01,.44-2,1.09-2.97,1.95-.97,.85-1.78,1.82-2.47,2.97-2.03-.73-4.01-1.09-5.89-1.09-3.49,0-6.61,1.07-9.31,3.19-2.7,2.12-4.45,4.84-5.22,8.17-2.75,.63-5,2.04-6.78,4.23-1.68,2.14-2.57,4.65-2.57,7.47Zm20.05,23.89c0,.39,.12,.78,.37,1.12,.25,.36,.62,.61,1.11,.73,.27,.05,.52,.07,.74,.07,1.01,0,1.63-.51,1.88-1.53l5.74-21.38c.15-.58,.1-1.09-.17-1.58-.27-.49-.69-.8-1.24-.95-.57-.17-1.11-.12-1.61,.15-.5,.27-.84,.66-.99,1.19l-5.74,21.5c-.07,.24-.1,.46-.1,.68Zm10.32-7.35c0,.39,.12,.78,.37,1.12,.25,.34,.62,.61,1.14,.75,.07,0,.2,0,.37,.02,.17,.02,.32,.02,.4,.02,.94,0,1.53-.51,1.78-1.53l3.71-14.04c.15-.58,.1-1.12-.2-1.61-.27-.46-.69-.78-1.26-.92-.57-.17-1.11-.12-1.61,.15-.49,.27-.82,.66-.97,1.22l-3.71,14.16c0,.24-.02,.46-.02,.66Zm3.07-36.32c.82-1.39,1.91-2.43,3.29-3.16,1.36-.73,2.82-1.09,4.36-1.09,.3,0,.54,0,.67,.02v.78c0,2.34,.64,4.55,1.93,6.64,1.29,2.09,3.09,3.67,5.37,4.79-.45,1.02-1.09,1.87-1.96,2.6-2.28-1.92-4.92-2.87-7.97-2.87h-.79c-.69-3.06-2.33-5.62-4.9-7.71Z"/></g></svg>