<?xml version="1.0" encoding="utf-8"?>
<!-- Generator: Adobe Illustrator 27.0.1, SVG Export Plug-In . SVG Version: 6.00 Build 0)  -->
<svg version="1.1" id="Layer_2_00000018957699505158829210000000901067558242554030_"
	 xmlns="http://www.w3.org/2000/svg" xmlns:xlink="http://www.w3.org/1999/xlink" x="0px" y="0px" viewBox="0 0 54 54"
	 style="enable-background:new 0 0 54 54;" xml:space="preserve">
<style type="text/css">
	.st0{fill:#97BACE;}
</style>
<g id="Layer_1-2">
	<path id="thunder-night" class="st0" d="M0,28.2c0,2.7,0.8,5.1,2.5,7.3c1.6,2.1,3.8,3.6,6.4,4.3l-1.6,4.1c-0.1,0.3,0.1,0.5,0.4,0.5
		h5.2l-2.4,8.5h0.7l9.7-12c0.1-0.1,0.1-0.2,0-0.4c-0.1-0.1-0.2-0.2-0.4-0.2h-5.4l6.1-11.3c0.2-0.3,0.1-0.5-0.3-0.5h-7.3
		c-0.2,0-0.4,0.1-0.6,0.3l-2.6,7c-1.8-0.4-3.2-1.4-4.4-2.8c-1.2-1.5-1.7-3.1-1.7-4.9c0-2,0.7-3.8,2.1-5.3s3.1-2.4,5.2-2.6l1.3-0.2
		c0.3,0,0.5-0.1,0.5-0.4l0.2-1.3c0.3-2.6,1.4-4.8,3.4-6.6s4.4-2.7,7.1-2.7s5,0.9,7,2.7s3.2,4,3.5,6.6l0.2,1.4c0,0.3,0.2,0.4,0.5,0.4
		h4c2.2,0,4.2,0.8,5.8,2.3s2.4,3.4,2.4,5.6S46.5,32,45,33.5c-1.5,1.5-3.3,2.4-5.4,2.5c-0.3,0-0.5,0.2-0.5,0.4v3.4
		c0,0.3,0.2,0.4,0.5,0.4c2.2-0.1,4.2-0.7,6-1.8c1.8-1.1,3.2-2.5,4.3-4.4c1-1.8,1.6-3.8,1.6-6s-0.5-4.1-1.6-6c2-1.9,3.2-4,3.9-6.4
		l0.3-1.8c0,0,0-0.1,0-0.2c0-0.2-0.1-0.3-0.4-0.4l-1.4-0.4c-1.4-0.4-2.6-1.1-3.6-2c-1-0.9-1.7-1.9-2.2-3C46,7.1,45.8,6,45.8,5
		c0-0.6,0.1-1.3,0.2-1.9l0.3-1.5c0.1-0.2,0-0.4-0.3-0.6c-0.5-0.2-1.3-0.4-2.2-0.6S41.9,0,40.9,0c-0.9,0-1.8,0.1-2.8,0.3
		c-0.9,0.2-1.9,0.5-2.9,1c-1,0.4-2,1.1-3,2c-1,0.8-1.8,1.8-2.5,3c-2-0.7-4-1.1-5.9-1.1c-3.5,0-6.6,1.1-9.3,3.2s-4.4,4.8-5.2,8.2
		c-2.8,0.6-5,2-6.8,4.2C0.9,22.9,0,25.4,0,28.2L0,28.2z M20,52.1c0,0.4,0.1,0.8,0.4,1.1c0.2,0.4,0.6,0.6,1.1,0.7
		c0.3,0,0.5,0.1,0.7,0.1c1,0,1.6-0.5,1.9-1.5l5.7-21.4c0.1-0.6,0.1-1.1-0.2-1.6s-0.7-0.8-1.2-1c-0.6-0.2-1.1-0.1-1.6,0.1
		s-0.8,0.7-1,1.2l-5.7,21.5C20.1,51.6,20,51.9,20,52.1L20,52.1z M30.4,44.7c0,0.4,0.1,0.8,0.4,1.1s0.6,0.6,1.1,0.8
		c0.1,0,0.2,0,0.4,0c0.2,0,0.3,0,0.4,0c0.9,0,1.5-0.5,1.8-1.5l3.7-14c0.2-0.6,0.1-1.1-0.2-1.6c-0.3-0.5-0.7-0.8-1.3-0.9
		c-0.6-0.2-1.1-0.1-1.6,0.1c-0.5,0.3-0.8,0.7-1,1.2l-3.7,14.2C30.4,44.3,30.4,44.5,30.4,44.7z M33.4,8.4C34.3,7,35.3,6,36.7,5.2
		c1.4-0.7,2.8-1.1,4.4-1.1c0.3,0,0.5,0,0.7,0V5c0,2.3,0.6,4.6,1.9,6.6s3.1,3.7,5.4,4.8c-0.5,1-1.1,1.9-2,2.6c-2.3-1.9-4.9-2.9-8-2.9
		h-0.8C37.6,13.1,36,10.5,33.4,8.4z"/>
</g>
</svg>
