<?xml version="1.0" encoding="utf-8"?>
<!-- Generator: Adobe Illustrator 27.0.1, SVG Export Plug-In . SVG Version: 6.00 Build 0)  -->
<svg version="1.1" id="Layer_2_00000082364479147982900390000003416800593603796619_"
	 xmlns="http://www.w3.org/2000/svg" xmlns:xlink="http://www.w3.org/1999/xlink" x="0px" y="0px" viewBox="0 0 51 51"
	 style="enable-background:new 0 0 51 51;" xml:space="preserve">
<style type="text/css">
	.st0{fill:#394152;}
</style>
<g id="Layer_1-2">
	<path id="thunder-day" class="st0" d="M0,25.1c0,2.6,0.8,5,2.4,7.1s3.6,3.5,6.1,4.2l-1.5,4c-0.1,0.3,0,0.5,0.3,0.5h5L9.8,51h0.7
		L20,37.6c0.1-0.1,0.1-0.2,0-0.3c-0.1-0.1-0.2-0.2-0.4-0.2h-5.2l5.9-11c0.2-0.3,0-0.5-0.3-0.5h-7c-0.2,0-0.4,0.1-0.6,0.3l-2.6,6.9
		c-1.7-0.4-3.1-1.3-4.2-2.7C4.6,28.6,4,27,4,25.2c0-2,0.7-3.7,2-5.2s3-2.3,5-2.5l1.3-0.1c0.3,0,0.4-0.1,0.4-0.4l0.2-1.3
		c0.2-1.7,0.7-3.2,1.6-4.6c0.9-1.4,2.1-2.5,3.6-3.3c1.5-0.8,3.1-1.2,4.8-1.2c2.6,0,4.8,0.9,6.8,2.6c1.9,1.7,3,3.9,3.3,6.5l0.2,1.3
		c0,0.3,0.1,0.5,0.4,0.5h3.9c2.1,0,3.9,0.8,5.5,2.3c1.5,1.5,2.3,3.3,2.3,5.4s-0.7,3.9-2.1,5.4c-1.4,1.5-3.2,2.3-5.2,2.4
		c-0.3,0-0.5,0.1-0.5,0.4v3.2c0,0.3,0.2,0.4,0.5,0.4c2.1,0,4-0.6,5.7-1.7c1.7-1.1,3.1-2.5,4.1-4.3s1.5-3.7,1.5-5.8
		c0-1.7-0.3-3.4-1-4.8c1.9-2.2,2.8-4.8,2.8-7.9c0-1.7-0.3-3.3-1-4.8s-1.5-2.9-2.7-4s-2.4-2-4-2.7c-1.5-0.7-3.1-1-4.8-1
		c-3.7,0-6.7,1.4-9.2,4.1c-1.9-1-4.1-1.5-6.4-1.5c-3.4,0-6.3,1-8.9,3.1s-4.3,4.8-5,8c-2.6,0.6-4.8,2-6.5,4.1S0,22.4,0,25.1L0,25.1z
		 M18.9,48.7c0,0.4,0.1,0.8,0.4,1.1c0.2,0.3,0.6,0.6,1.1,0.7l0.6,0.1c1,0,1.6-0.5,1.9-1.4L28.6,28c0.1-0.5,0.1-1.1-0.2-1.5
		c-0.3-0.5-0.6-0.8-1.2-1c-0.5-0.2-1.1-0.1-1.5,0.1s-0.8,0.7-1,1.2l-5.8,21.3C18.9,48.5,18.9,48.7,18.9,48.7L18.9,48.7z M28.7,41.5
		c0,1,0.5,1.6,1.5,1.9c0.4,0,0.6,0.1,0.6,0.1c0.3,0,0.5,0,0.8-0.2c0.5-0.2,0.8-0.7,1-1.3l3.9-14c0.1-0.5,0.1-1.1-0.2-1.5
		c-0.3-0.5-0.7-0.8-1.2-1c-0.5-0.2-1.1-0.1-1.5,0.1s-0.8,0.7-0.9,1.2l-3.9,14.1C28.8,41.3,28.7,41.5,28.7,41.5L28.7,41.5z M32.7,6.4
		c1.6-1.5,3.6-2.3,5.9-2.3s4.3,0.8,5.9,2.4c1.6,1.6,2.5,3.6,2.5,5.9c0,1.5-0.4,3-1.2,4.4c-2.3-2.3-5-3.4-8.3-3.4h-0.8
		C36,10.7,34.7,8.3,32.7,6.4L32.7,6.4z"/>
</g>
</svg>
